<?xml version="1.0" encoding="utf-8"?>
<!-- Generator: Adobe Illustrator 23.0.1, SVG Export Plug-In . SVG Version: 6.00 Build 0)  -->
<svg version="1.1" id="Layer_1" xmlns="http://www.w3.org/2000/svg" xmlns:xlink="http://www.w3.org/1999/xlink" x="0px" y="0px"
	 viewBox="0 0 15 15" style="enable-background:new 0 0 15 15;" xml:space="preserve">
<g>
	<path d="M12,6.3c0,0.8,0,1.5,0,2.2c0,0.9,0,1.8,0,2.7c0,0.3-0.2,0.5-0.5,0.6c-0.1,0-0.2,0-0.3,0c-1.7,0-3.3,0-5,0
		c-0.2,0-0.4,0.1-0.5,0.2C5.1,12.4,4.6,13,4,13.5c0,0.1-0.1,0.1-0.1,0.1c-0.1,0.1-0.2,0.1-0.2,0.1c-0.1,0-0.1-0.1-0.1-0.2v-0.1
		c0-0.5,0-1.1,0-1.6c0-0.1,0-0.1,0-0.2c-0.6,0-1.1,0-1.7,0c-0.4,0-0.7-0.2-0.7-0.7c0-2,0-4,0-6c0-0.5,0.3-0.8,0.8-0.8
		c0.8,0,1.5,0,2.2,0c1.1,0,2.3,0,3.4,0l0.8-0.9c-2.2,0-4.4,0-6.7,0c-0.8,0-1.4,0.6-1.4,1.4c0,1.3,0,2.7,0,4c0,0.8,0,1.6,0,2.4
		c0,0.6,0.4,1.1,1,1.2c0.2,0,0.5,0,0.7,0c0.2,0,0.4,0,0.6,0c0,0.4,0,0.8,0,1.2c0,0.5,0.2,0.9,0.7,1.1c0.4,0.3,0.9,0.2,1.3-0.2
		c0.6-0.6,1.2-1.2,1.8-1.8c0.2-0.1,0.3-0.2,0.5-0.2c1.6,0,3.1,0,4.7,0c0.7,0,1.3-0.6,1.3-1.4c0-1.2,0-2.5,0-3.7c0-0.7,0-1.4,0-2.1
		c-0.3,0.3-0.5,0.5-0.7,0.8C12,6.1,12,6.2,12,6.3z"/>
	<path d="M13.4,0.4c-0.1,0-0.2,0-0.2,0c-0.3,0.3-0.6,0.6-0.9,0.9c0.5,0.5,0.9,1,1.5,1.6c0.3-0.4,0.6-0.7,0.9-1c0-0.1,0-0.2,0-0.2
		C14.3,1.3,13.9,0.8,13.4,0.4z"/>
	<path d="M9.8,4.5c0.9-0.9,1.8-1.8,2.8-2.7c-0.2-0.1-0.3-0.3-0.4-0.4c-1,0.9-1.9,1.8-2.8,2.7C9.5,4.2,9.7,4.3,9.8,4.5z"/>
	<path d="M13.2,2.5c-0.9,0.9-1.9,1.8-2.8,2.7c0.1,0.1,0.3,0.2,0.4,0.4c1-0.9,1.9-1.8,2.8-2.7C13.4,2.8,13.3,2.6,13.2,2.5z"/>
	<path d="M8.4,6.3C8.2,5.5,7.6,5.1,6.9,5.1c-0.7,0-1.2,0.5-1.4,1.1C5.4,6.9,5.7,7.7,6.5,8C6.3,8,6.2,8,6,8C5.6,8,5.3,8.1,5,8.3
		C4.7,8.4,4.5,8.7,4.5,9.1c0,0.2,0,0.5,0,0.7c0,0.1,0,0.2,0.2,0.2c1.5,0,3,0,4.5,0c0.1,0,0.2-0.1,0.2-0.2c0-0.2,0-0.5,0-0.7
		c0-0.4-0.2-0.7-0.5-0.8C8.7,8.2,8.4,8.1,8.2,8C7.9,8,7.6,8,7.3,8C8.3,7.6,8.5,6.9,8.4,6.3z"/>
	<polygon points="9.1,4.3 9.1,5.8 10.6,5.8 	"/>
</g>
</svg>
