<?xml version="1.0" encoding="UTF-8"?>
<svg width="15px" height="15px" viewBox="0 0 15 15" version="1.1" xmlns="http://www.w3.org/2000/svg" xmlns:xlink="http://www.w3.org/1999/xlink">
    <!-- Generator: Sketch 52.2 (67145) - http://www.bohemiancoding.com/sketch -->
    <title>menu/icon/feedback</title>
    <desc>Created with Sketch.</desc>
    <g id="menu/icon/feedback" stroke="none" stroke-width="1" fill="none" fill-rule="evenodd">
        <g id="Group-19" transform="translate(0.000000, 1.000000)" fill="#333333">
            <path d="M13.6086,3.3521 C13.6136,2.5841 13.6126,1.8161 13.6116,1.0481 C13.6116,0.6771 13.4626,0.5271 13.0936,0.5271 C11.0196,0.5261 8.9456,0.5251 6.8716,0.5251 C4.9316,0.5251 2.9916,0.5251 1.0526,0.5271 C0.6626,0.5271 0.5296,0.6631 0.5286,1.0551 C0.5256,1.8061 0.5266,2.5571 0.5276,3.3081 C0.5276,3.7201 0.6656,3.8611 1.0836,3.8611 C4.1096,3.8621 7.1376,3.8621 10.1646,3.8631 C10.5366,3.8631 10.5876,3.9141 10.5896,4.2921 C10.5916,4.6721 10.5906,5.0511 10.5906,5.4771 C11.0256,4.9731 11.4316,4.5101 11.8296,4.0401 C11.9366,3.9141 12.0516,3.8531 12.2196,3.8591 C12.5106,3.8701 12.8026,3.8641 13.0936,3.8611 C13.4556,3.8571 13.6066,3.7121 13.6086,3.3521 Z M14.1326,1.0121 C14.1326,1.8201 14.1336,2.6271 14.1326,3.4351 C14.1326,3.9451 13.7206,4.3681 13.2116,4.3771 C12.9316,4.3821 12.6506,4.3821 12.3706,4.3761 C12.2736,4.3741 12.2076,4.4011 12.1416,4.4781 C11.6286,5.0791 11.1096,5.6761 10.5926,6.2741 C10.5236,6.3541 10.4556,6.4381 10.3346,6.4401 C10.1756,6.4431 10.0646,6.3281 10.0636,6.1451 C10.0616,5.6121 10.0566,5.0791 10.0666,4.5471 C10.0686,4.4021 10.0256,4.3761 9.8896,4.3761 C6.9896,4.3811 4.0906,4.3791 1.1916,4.3811 C0.8786,4.3811 0.5746,4.3741 0.3256,4.1431 C0.1176,3.9501 0.0026,3.7171 0.0016,3.4331 C-0.0004,2.6081 -0.0004,1.7841 0.0006,0.9591 C0.0016,0.4251 0.4256,0.0011 0.9616,0.0001 C2.9976,0.0001 5.0336,0.0001 7.0686,0.0001 C9.0876,0.0001 11.1066,-0.0009 13.1256,0.0011 C13.7396,0.0011 14.1326,0.4011 14.1326,1.0121 Z M11.1096,2.5884 C10.9806,2.3814 11.0886,2.2764 11.2136,2.1574 C11.0196,2.1634 10.9106,2.0764 10.8546,1.8914 C10.7926,2.0704 10.6966,2.1664 10.4696,2.1504 C10.6486,2.2734 10.7006,2.4004 10.6416,2.5794 C10.7896,2.4384 10.9246,2.5014 11.1096,2.5884 Z M11.5586,1.8584 C11.6416,1.8544 11.7216,1.8894 11.7526,1.9884 C11.7796,2.0784 11.7356,2.1374 11.6786,2.1944 C11.6746,2.1984 11.6716,2.2034 11.6676,2.2064 C11.4476,2.3544 11.3726,2.5454 11.4676,2.8024 C11.4976,2.8834 11.4976,2.9854 11.4046,3.0444 C11.3176,3.1004 11.2336,3.0684 11.1536,3.0204 C11.1436,3.0144 11.1336,3.0094 11.1256,3.0024 C10.9466,2.8604 10.7676,2.8564 10.5876,3.0014 C10.5626,3.0214 10.5306,3.0364 10.4996,3.0484 C10.3366,3.1154 10.2216,3.0334 10.2326,2.8144 C10.3736,2.5594 10.2416,2.3594 10.0106,2.1714 C9.8796,2.0634 9.9436,1.8714 10.1146,1.8674 C10.4146,1.8604 10.5886,1.7364 10.6916,1.4544 C10.7546,1.2824 10.9296,1.2914 11.0216,1.4504 C11.0266,1.4604 11.0336,1.4704 11.0366,1.4814 C11.1096,1.7464 11.2806,1.8694 11.5586,1.8584 Z M5.2893,2.5645 C5.1903,2.3845 5.2933,2.2775 5.4203,2.1595 C5.2283,2.1635 5.1223,2.0745 5.0603,1.8835 C5.0083,2.0835 4.8933,2.1585 4.6973,2.1625 C4.8613,2.2765 4.9033,2.4035 4.8293,2.6075 C4.9963,2.4575 5.1343,2.4835 5.2893,2.5645 Z M5.7903,1.8605 C5.8673,1.8565 5.9393,1.9035 5.9633,1.9945 C5.9853,2.0755 5.9573,2.1445 5.8953,2.1865 C5.6623,2.3475 5.5823,2.5525 5.6813,2.8265 C5.7063,2.8975 5.7003,2.9845 5.6223,3.0385 C5.5433,3.0945 5.4583,3.0835 5.3883,3.0295 C5.1663,2.8615 4.9593,2.8715 4.7283,3.0295 C4.5683,3.1405 4.4363,3.0505 4.4423,2.8235 C4.5903,2.5615 4.4453,2.3585 4.2163,2.1655 C4.0943,2.0615 4.1553,1.8675 4.3133,1.8695 C4.6373,1.8735 4.8043,1.7195 4.9123,1.4355 C4.9653,1.2945 5.1323,1.3005 5.2173,1.4265 C5.2243,1.4365 5.2313,1.4455 5.2343,1.4565 C5.3133,1.7365 5.4893,1.8775 5.7903,1.8605 Z M7.2097,2.5674 C7.1687,2.4004 7.1947,2.2704 7.3327,2.1674 C7.1557,2.1724 7.0637,2.0674 6.9877,1.9074 C6.9327,2.0854 6.8237,2.1594 6.6477,2.1744 C6.8197,2.2614 6.7957,2.4144 6.7947,2.5934 C6.9357,2.4424 7.0647,2.4974 7.2097,2.5674 Z M7.6347,1.8504 C7.7457,1.8534 7.8527,1.8694 7.8947,1.9914 C7.9337,2.1044 7.8537,2.1744 7.7787,2.2304 C7.5927,2.3674 7.5137,2.5324 7.6017,2.7594 C7.6167,2.8004 7.6217,2.8484 7.6207,2.8924 C7.6157,3.0034 7.5587,3.0674 7.4367,3.0734 C7.3187,3.0524 7.2167,2.9814 7.1107,2.9214 C7.0297,2.8754 6.9637,2.8644 6.8827,2.9194 C6.8047,2.9714 6.7187,3.0144 6.6317,3.0514 C6.4737,3.1194 6.3477,3.0204 6.3687,2.8504 C6.3697,2.8394 6.3737,2.8284 6.3767,2.8174 C6.4657,2.5694 6.4227,2.3644 6.1907,2.2134 C6.1117,2.1614 6.0627,2.0814 6.0967,1.9824 C6.1297,1.8844 6.2197,1.8614 6.3127,1.8534 C6.3237,1.8524 6.3347,1.8494 6.3457,1.8504 C6.5717,1.8564 6.7197,1.7634 6.7857,1.5374 C6.8137,1.4374 6.8617,1.3314 6.9987,1.3354 C7.1247,1.3384 7.1577,1.4404 7.2007,1.5304 C7.2057,1.5404 7.2137,1.5494 7.2157,1.5604 C7.2677,1.7844 7.4327,1.8444 7.6347,1.8504 Z M9.1404,2.5821 C9.0874,2.3971 9.1374,2.2701 9.2884,2.1601 C9.0984,2.1561 8.9804,2.0901 8.9284,1.8781 C8.8614,2.0861 8.7514,2.1631 8.5524,2.1581 C8.7234,2.2671 8.7454,2.4031 8.7054,2.5821 C8.8574,2.4771 8.9884,2.4701 9.1404,2.5821 Z M9.6634,1.8671 C9.8314,1.8661 9.8804,2.0421 9.7684,2.1741 C9.7654,2.1781 9.7624,2.1831 9.7574,2.1861 C9.5144,2.3491 9.4494,2.5591 9.5424,2.8431 C9.5984,3.0141 9.4274,3.1451 9.2824,3.0431 C9.0284,2.8651 8.8104,2.8791 8.5614,3.0471 C8.4264,3.1381 8.2944,3.0331 8.3034,2.8251 C8.4384,2.5641 8.3114,2.3561 8.0764,2.1641 C7.9504,2.0621 8.0114,1.8721 8.1734,1.8711 C8.4904,1.8681 8.6644,1.7261 8.7694,1.4361 C8.8234,1.2861 9.0214,1.2891 9.0794,1.4401 C9.1864,1.7191 9.3494,1.8681 9.6634,1.8671 Z M3.3401,2.5611 C3.3241,2.3491 3.3241,2.3491 3.4691,2.1611 C3.3041,2.1581 3.1941,2.0821 3.1351,1.8761 C3.0791,2.0811 2.9651,2.1601 2.7641,2.1591 C2.9301,2.2671 2.9541,2.4021 2.9111,2.6151 C3.0701,2.4381 3.2051,2.5041 3.3401,2.5611 Z M3.8901,1.8721 C4.0481,1.8731 4.1051,2.0691 3.9771,2.1691 C3.7361,2.3561 3.6561,2.5641 3.7551,2.8601 C3.8051,3.0091 3.6351,3.1411 3.5071,3.0501 C3.2441,2.8631 3.0151,2.8771 2.7551,3.0521 C2.6291,3.1371 2.5021,3.0251 2.5131,2.8271 C2.6521,2.5631 2.5171,2.3561 2.2861,2.1631 C2.1621,2.0581 2.2211,1.8701 2.3821,1.8691 C2.7001,1.8691 2.8771,1.7311 2.9791,1.4371 C3.0281,1.2961 3.2311,1.2891 3.2811,1.4261 C3.3891,1.7211 3.5651,1.8691 3.8901,1.8721 Z" id="Fill-5"></path>
            <path d="M8.1046,9.59375 C7.3566,9.36175 6.5956,9.34675 5.8296,9.49975 C5.1646,9.63275 4.5756,9.91675 4.1086,10.41375 C3.2236,11.35575 2.9686,12.51275 3.0026,13.76175 C3.0056,13.86575 3.0626,13.93975 3.1486,13.99275 C3.2696,14.06575 3.3936,14.06975 3.5176,14.00575 C3.6456,13.93975 3.6926,13.82775 3.6896,13.68575 C3.6796,13.09975 3.7486,12.52375 3.9446,11.96875 C4.2296,11.15775 4.7236,10.53775 5.5516,10.23275 C6.1436,10.01475 6.7566,9.99075 7.3746,10.07475 C8.3136,10.20275 9.0046,10.68475 9.4176,11.54675 C9.6886,12.11075 9.8056,12.71075 9.8166,13.38475 C9.8166,13.44575 9.8176,13.55775 9.8166,13.66975 C9.8146,13.89875 9.9406,14.04075 10.1506,14.04775 C10.3646,14.05475 10.4986,13.92475 10.5096,13.69675 C10.5426,13.01775 10.4606,12.35375 10.2316,11.71375 C9.8586,10.67375 9.1806,9.92775 8.1046,9.59375" id="Fill-1"></path>
            <path d="M5.0792,5.00195 C4.9162,4.98695 4.8582,5.05195 4.8162,5.19995 C4.5222,6.23795 4.9852,7.67595 5.8352,8.34195 C6.4892,8.85595 7.2852,8.82495 7.8982,8.26395 C8.3842,7.81795 8.6712,7.25995 8.8262,6.62695 C8.9492,6.12295 8.9702,5.62095 8.7992,5.12295 C8.7822,5.07195 8.7802,5.00595 8.7032,5.00495 C8.4662,5.00495 8.2292,5.00495 7.9722,5.00495 C8.2132,5.40295 8.2522,5.80795 8.1842,6.22695 C8.0892,6.82395 7.8572,7.35395 7.3932,7.75895 C7.0322,8.07495 6.6402,8.07495 6.2672,7.77895 C5.5822,7.23395 5.1612,5.86195 5.6672,5.00595 C5.4562,5.00595 5.2662,5.01995 5.0792,5.00195" id="Fill-4"></path>
        </g>
    </g>
</svg>