<svg width="24" height="15" viewBox="0 0 24 15" fill="none" xmlns="http://www.w3.org/2000/svg">
<path fill-rule="evenodd" clip-rule="evenodd" d="M24 5.2H20.8V2H19.2V5.2H16V6.8H19.2V10H20.8V6.8H24V5.2Z" fill="#2D3641"/>
<path fill-rule="evenodd" clip-rule="evenodd" d="M7.5 9H11.7435C11.124 10.746 9.456 12 7.5 12C5.019 12 3 9.981 3 7.5C3 5.019 5.019 3 7.5 3C8.5755 3 9.6105 3.3855 10.4145 4.086L12.3855 1.824C11.0355 0.648 9.3015 0 7.5 0C3.3645 0 0 3.3645 0 7.5C0 11.6355 3.3645 15 7.5 15C11.6355 15 15 11.6355 15 7.5V6H7.5V9Z" fill="#2D3641"/>
</svg>
