<?xml version="1.0" encoding="UTF-8"?>
<svg width="15px" height="15px" viewBox="0 0 15 15" version="1.1" xmlns="http://www.w3.org/2000/svg" xmlns:xlink="http://www.w3.org/1999/xlink">
    <!-- Generator: Sketch 52.2 (67145) - http://www.bohemiancoding.com/sketch -->
    <title>menu/icon/buyer</title>
    <desc>Created with Sketch.</desc>
    <defs>
        <path d="M13.7300704,13.2938405 C13.1284746,12.0800018 12.1628207,11.1805549 10.856364,10.5829342 C10.0330111,10.2064683 9.15428811,10.0104446 8.23819036,9.93982587 C7.57928657,9.88931208 6.92259758,9.89685145 6.26867709,9.99410933 C5.23824015,10.1471586 4.30082493,10.5005037 3.46529062,11.0697262 C2.49797556,11.7289185 1.77705729,12.5710662 1.25242591,13.5552053 C1.14833019,13.7507263 1.04395761,13.9467499 1.00907447,14.1663969 C0.958687708,14.4863176 1.12064515,14.7856306 1.43237863,14.9185748 C1.51958648,14.955769 1.61676095,14.9736122 1.70922896,15 L1.91520561,15 C1.93126293,14.9954764 1.9470434,14.9899475 1.96365442,14.9869318 C2.20949751,14.9439573 2.39111133,14.8298615 2.47887289,14.6087067 C2.50378942,14.5461299 2.53368925,14.4848097 2.56497334,14.4249973 C2.84376163,13.8947283 3.21584847,13.4225124 3.6560405,12.9940248 C4.16710622,12.4966777 4.75098357,12.0867873 5.43120484,11.7955162 C6.26812339,11.4366422 7.14795375,11.3062111 8.06820426,11.3805996 C8.70689798,11.4321186 9.31375391,11.5813981 9.88434244,11.8477892 C10.7010509,12.2292814 11.3375298,12.7907131 11.8563474,13.4702617 C12.1323671,13.8311463 12.358277,14.217162 12.5592704,14.6154921 C12.6378959,14.7708031 12.7641396,14.8806266 12.939109,14.9411929 C13.0155197,14.9675807 13.0977443,14.9809003 13.1774772,15 L13.2951385,15 C13.3067663,14.9964816 13.3178403,14.9914554 13.3297448,14.9899475 C13.7646767,14.9359154 13.9997226,14.6949068 13.9999995,14.2958228 C14.0002763,13.9422263 13.8875983,13.6117506 13.7300704,13.2938405 M7.49988148,8.63636364 C5.34939979,8.63636364 3.6,6.92348453 3.6,4.81818182 C3.6,2.71287911 5.34939979,1 7.49988148,1 C9.65036317,1 11.4,2.71287911 11.4,4.81818182 C11.4,6.92348453 9.65036317,8.63636364 7.49988148,8.63636364 Z M7.5,2.27272727 C6.06634615,2.27272727 4.9,3.41455184 4.9,4.81806415 C4.9,6.22157646 6.06634615,7.36363636 7.5,7.36363636 C8.93389423,7.36363636 10.1,6.22157646 10.1,4.81806415 C10.1,3.41455184 8.93389423,2.27272727 7.5,2.27272727 Z" id="path-1"></path>
    </defs>
    <g id="menu/icon/buyer" stroke="none" stroke-width="1" fill="none" fill-rule="evenodd">
        <mask id="mask-2" fill="white">
            <use xlink:href="#path-1"></use>
        </mask>
        <use id="Fill-4" fill="#000000" xlink:href="#path-1"></use>
    </g>
</svg>