<svg width="15" height="15" viewBox="0 0 15 15" fill="none" xmlns="http://www.w3.org/2000/svg">
<path fill-rule="evenodd" clip-rule="evenodd" d="M8.57143 9.61538H13.9286V8.53846H8.57143V9.61538ZM13.9286 13.9231H8.57143V10.6939H9.63374V11.7518H12.8654V10.6923H13.9286V13.9231ZM5.36444 6.38459C4.1866 6.38973 3.21743 5.43465 3.21429 4.26563C3.21095 3.03607 4.14708 2.07998 5.35727 2.07693C6.52661 2.07404 7.4945 3.02715 7.49997 4.18691C7.50576 5.41712 6.5708 6.3793 5.36444 6.38459V6.38459ZM14.9988 8.63516C14.9988 8.52428 14.9982 8.41015 14.9739 8.30305C14.8557 7.7823 14.4284 7.45152 13.8765 7.45109C12.1918 7.4496 10.5071 7.4584 8.82247 7.44549C8.3445 7.44181 7.94206 7.54662 7.6705 7.98145C7.04223 7.68811 6.39146 7.51094 5.70278 7.45088C6.62329 7.31323 7.37612 6.88933 7.92876 6.14297C8.48735 5.38867 8.6751 4.53777 8.50719 3.61323C8.23829 2.13155 6.94075 1.04647 5.3916 1.00124C3.932 0.95863 2.56165 2.01566 2.2217 3.44869C2.04374 4.19857 2.10533 4.93047 2.44901 5.61998C2.9733 6.67167 3.83867 7.26805 4.99569 7.45045C1.80287 7.69686 -0.0967678 10.4885 0.00380391 12.8229H1.03654C1.07207 12.5296 1.08733 12.2423 1.14365 11.9633C1.71171 9.15021 4.82997 7.68582 7.35628 9.03741C7.46781 9.09709 7.49594 9.16312 7.49563 9.28179C7.49174 10.8172 7.49174 12.3525 7.49387 13.8879C7.49451 14.4042 7.8176 14.819 8.31163 14.9499C8.38748 14.97 8.46512 14.9835 8.54203 15H13.9461C13.9657 14.9929 13.9848 14.9823 14.0049 14.9791C14.6555 14.8762 14.9995 14.4751 14.9997 13.815C15.0002 12.0884 15.0003 10.3617 14.9988 8.63516V8.63516Z" fill="black"/>
</svg>
