<?xml version="1.0" encoding="UTF-8"?>
<svg width="15px" height="15px" viewBox="0 0 15 15" version="1.1" xmlns="http://www.w3.org/2000/svg" xmlns:xlink="http://www.w3.org/1999/xlink">
    <!-- Generator: Sketch 52.2 (67145) - http://www.bohemiancoding.com/sketch -->
    <title>menu/icon/supplier</title>
    <desc>Created with Sketch.</desc>
    <g id="menu/icon/supplier" stroke="none" stroke-width="1" fill="none" fill-rule="evenodd">
        <g id="Group-3" transform="translate(0.000000, 1.000000)" fill="#000000">
            <path d="M8.57142857,8.61538462 L13.9285714,8.61538462 L13.9285714,7.53846154 L8.57142857,7.53846154 L8.57142857,8.61538462 Z M13.9285714,12.9230769 L8.57142857,12.9230769 L8.57142857,9.69391977 L9.63374124,9.69391977 L9.63374124,10.7518203 L12.8654048,10.7518203 L12.8654048,9.69230769 L13.9285714,9.69230769 L13.9285714,12.9230769 Z M5.36443671,5.38459481 C4.18659607,5.38972534 3.2174282,4.43464569 3.21429466,3.26563376 C3.21094867,2.03607093 4.14708156,1.07997586 5.35726674,1.07692961 C6.52660963,1.07404369 7.49450284,2.02714595 7.49997326,3.18691224 C7.50576235,4.41711639 6.5707979,5.37930395 5.36443671,5.38459481 Z M14.9739379,7.30305284 C14.8556558,6.78229887 14.4283723,6.45152091 13.8764777,6.45109423 C12.1918084,6.44960088 10.507086,6.458401 8.8224699,6.44549415 C8.34450164,6.4418141 7.94205523,6.54661557 7.67049565,6.98144833 C7.04222826,6.68811089 6.39146386,6.51093507 5.70277898,6.4508809 C6.62329469,6.31322563 7.37611996,5.88932636 7.92875913,5.14296924 C8.48735495,4.38866534 8.67509591,3.53777341 8.50719274,2.61322713 C8.23829238,1.13155303 6.94075241,0.0464711643 5.39159702,0.00124386392 C3.93200417,-0.0413700665 2.56165475,1.01565808 2.22170003,2.44869149 C2.043745,3.19856866 2.10533255,3.93047225 2.44901018,4.61997524 C2.97330206,5.67166998 3.83866554,6.26805167 4.9956923,6.45045422 C1.80287283,6.69685768 -0.0967678043,9.48847012 0.00380390828,11.8229028 L1.03653871,11.8229028 C1.0720659,11.5295654 1.08732982,11.2422547 1.14365211,10.9632641 C1.71171475,8.15021137 4.82996969,6.68581752 7.35628218,8.03740979 C7.46780988,8.09709063 7.49594443,8.16311822 7.49562533,8.28178655 C7.49174286,9.81716806 7.49174286,11.3524962 7.49387024,12.8878778 C7.49450845,13.4041517 7.81760372,13.8190375 8.31163367,13.9499193 C8.38747464,13.9700262 8.46512387,13.9834664 8.54202852,14 L13.9460961,14 C13.9656679,13.9928532 13.9847611,13.9822931 14.004918,13.979093 C14.6554697,13.8762116 14.9995196,13.4751393 14.9996792,12.8150234 C15.0001578,11.0883859 15.0002642,9.36174835 14.9988282,7.63516416 C14.998775,7.5242826 14.9982432,7.41014767 14.9739379,7.30305284 Z" id="Fill-1"></path>
        </g>
    </g>
</svg>