<svg width="63" height="50" viewBox="0 0 63 50" fill="none" xmlns="http://www.w3.org/2000/svg">
<path fill-rule="evenodd" clip-rule="evenodd" d="M26.4484 18.75C27.9079 21.5752 30.2714 26.5571 31.6604 26.1987C32.6823 25.9352 33.6974 26.9225 33.9958 28.4521C34.2942 29.9819 33.8002 31.6373 32.7347 32.1557C31.6692 32.6739 30.4283 31.6681 30.1338 29.8696C30.0459 29.3329 30.0594 28.8019 30.1432 28.3131C30.3639 27.0271 29.7603 25.4484 28.8735 23.8453C27.9773 22.2249 26.7572 20.5294 25.8193 19.1437C26.0657 19.0602 26.2732 18.9256 26.4484 18.75Z" fill="#00AFEF"/>
<path fill-rule="evenodd" clip-rule="evenodd" d="M26.8662 16.6665C28.2364 17.1249 30.0969 17.7691 31.572 18.1589C32.9351 18.5191 33.9976 18.6683 34.1611 18.2452C34.2809 17.9355 34.5043 17.7496 34.7983 17.7619C35.3346 17.7845 35.9065 18.4528 36.0945 19.2725C36.2823 20.0923 35.9472 20.8199 35.4823 20.8329C35.1275 20.8427 34.7429 20.5432 34.4639 20.1244C34.1229 19.6047 32.9897 19.1394 31.6015 18.7325C30.0987 18.2919 28.2403 17.8912 26.8525 17.5897C26.9072 17.3048 26.9134 16.9927 26.8662 16.6665Z" fill="#A8CF45"/>
<path fill-rule="evenodd" clip-rule="evenodd" d="M25.8193 14.8353C28.067 12.9292 30.2432 11.7378 29.6989 9.01805C29.4488 7.76822 30.0675 7.05276 30.9737 7.36414C31.8799 7.67552 32.7305 8.80988 32.9812 9.9671C33.2321 11.1242 32.7662 11.9348 31.8905 11.7359C30.8862 11.5078 30.0114 11.9234 29.1683 12.6429C28.263 13.4155 27.3886 14.5561 26.4511 15.6248C26.276 15.3308 26.0625 15.061 25.8193 14.8353Z" fill="#F4BB30"/>
<path fill-rule="evenodd" clip-rule="evenodd" d="M23.8826 13.4562C23.7253 11.6733 23.5665 9.27939 23.2194 7.18446C22.8842 5.15936 22.3691 3.35418 21.4943 2.47463C21.0739 2.05481 20.7601 1.55204 20.6739 1.04978C20.5291 0.205914 21.2463 -0.246999 22.2118 0.139545C23.1771 0.526177 24.0198 1.4944 24.1831 2.34068C24.2548 2.71254 24.1872 3.00126 24.0114 3.19189C23.4198 3.83389 23.4387 5.46994 23.6891 7.40517C23.9483 9.4085 24.4473 11.7075 24.7864 13.5417C24.6462 13.5004 24.5053 13.4742 24.3515 13.4578C24.1978 13.4415 24.0306 13.4386 23.8826 13.4562Z" fill="#F37335"/>
<path fill-rule="evenodd" clip-rule="evenodd" d="M22.2541 15.625C20.1748 13.6462 18.6158 11.9177 16.8874 10.5607C15.0607 9.12647 12.9775 8.04828 9.47738 7.39198C6.71958 6.87493 4.18771 4.60165 4.13181 2.46032C4.07591 0.318994 6.49716 -0.512763 9.01358 0.315776C11.53 1.14431 13.2844 3.4109 13.5169 4.88627C14.0432 8.22817 19.5415 12.2209 22.721 14.856C22.5169 15.0552 22.3616 15.3176 22.2541 15.625Z" fill="#F11A22"/>
<path fill-rule="evenodd" clip-rule="evenodd" d="M22.7213 17.6403C21.0174 17.9787 18.192 18.5028 15.3507 19.2482C12.0647 20.1105 8.78787 21.248 7.78165 22.3694C7.10674 23.1288 5.97389 23.722 4.65335 23.9017C2.15446 24.2416 -0.00766454 23.0111 2.0424e-05 21.1905C0.00770539 19.3699 2.09648 17.8779 4.50213 17.7949C5.67435 17.7544 6.71796 18.0705 7.43369 18.5974C8.89093 19.67 12.1504 19.3027 15.3196 18.6042C18.0761 17.9966 20.718 17.1415 22.3668 16.6665C22.4248 17.0091 22.553 17.3389 22.7213 17.6403Z" fill="#7F2D82"/>
<path fill-rule="evenodd" clip-rule="evenodd" d="M23.7541 19.1899C23.2878 20.7776 22.5577 23.1279 22.0466 25.4445C21.4946 27.9467 21.1966 30.3357 21.8074 31.3265C22.0925 31.809 22.2887 32.3952 22.3642 33.0634C22.629 35.4093 21.409 38.082 19.2089 39.1929C17.0087 40.3039 14.6642 38.9662 14.4727 36.1645C14.2811 33.3629 16.1304 30.6604 18.3671 30.0166C21.2678 29.1814 22.2386 22.2845 22.9019 18.75C23.1686 18.9493 23.4594 19.1011 23.7541 19.1899Z" fill="#262873"/>
<path fill-rule="evenodd" clip-rule="evenodd" d="M24.192 10.4595C25.3842 10.6467 26.4446 11.3362 27.2562 12.3183C28.0598 13.2906 28.6294 14.5639 28.8371 15.9136V15.92C28.8707 16.1422 28.894 16.3673 28.907 16.5933C28.9773 17.8344 28.7132 18.9934 28.1854 19.9022C27.6027 20.9059 26.718 21.6051 25.6088 21.8127C25.4815 21.8365 25.3478 21.8537 25.208 21.8638L25.208 21.8646C23.8548 21.9652 22.5199 21.3177 21.4952 20.1996C20.5539 19.1724 19.8609 17.723 19.673 16.0972L19.6722 16.0973C19.605 15.5251 19.6084 14.9837 19.6722 14.4816C19.8099 13.3989 20.2188 12.4733 20.8057 11.7798C21.4215 11.0523 22.2277 10.5844 23.1262 10.454C23.4768 10.403 23.8343 10.4033 24.192 10.4595Z" fill="#FEFEFE"/>
<path fill-rule="evenodd" clip-rule="evenodd" d="M23.9549 12.5288C25.8924 12.8011 27.4584 14.6343 27.8153 16.7089C28.1784 18.8514 27.0892 20.7103 25.223 20.8266C23.1471 20.9646 21.0245 18.9656 20.6962 16.4061C20.3726 13.9443 22.0173 12.2565 23.9549 12.5288Z" fill="#156B43"/>
<mask id="mask0" mask-type="alpha" maskUnits="userSpaceOnUse" x="0" y="12" width="63" height="38">
<path fill-rule="evenodd" clip-rule="evenodd" d="M0 12.5522H62.999V49.3534H0V12.5522Z" fill="white"/>
</mask>
<g mask="url(#mask0)">
<path fill-rule="evenodd" clip-rule="evenodd" d="M38.4583 33.528C30.218 42.2566 9.24937 54.5908 0 42.584C0.0424528 45.088 3.30699 47.4576 5.25116 48.3099C6.02941 48.5226 6.50708 48.736 7.37949 48.8845C13.1718 49.9123 17.6667 49.1363 22.9975 47.661C25.7444 46.901 25.8522 46.6027 28.0531 46.0346L28.3792 46.0133C28.5365 46.0032 28.7057 46.1348 28.7061 46.232C28.7075 46.5506 27.9397 46.9658 28.0595 47.5538C26.7365 48.984 39.3697 44.5208 40.3364 43.4958C41.7675 41.9782 40.635 39.2965 41.7179 39.2259L42.0439 39.2046C42.2942 39.1883 42.5332 39.2467 42.5343 39.4926C42.2649 40.3316 42.4803 40.4557 43.1901 40.4094C45.6669 40.248 55.8812 34.6585 55.8753 33.2646L55.8746 33.1045C55.8718 32.4376 54.7411 32.0343 54.2022 31.81C53.7284 31.6124 52.6056 31.0347 52.6035 30.5185L52.6023 30.1987C52.5998 29.6075 52.8625 29.9377 53.0068 29.5326L53.4143 29.506C53.7396 29.4848 54.6379 30.134 54.7227 30.3798C54.855 30.7627 55.4572 31.3168 55.7864 31.5109C59.3018 29.4522 63.0163 25.7548 62.999 21.6034C62.9905 19.5409 58.1859 20.6089 58.1807 19.3581C58.1753 18.0377 62.4331 19.6659 62.7556 17.9224L62.9176 17.212C63.6668 10.0988 47.4479 12.5994 38.2278 15.1246C46.9422 18.4997 43.8276 27.8405 38.4583 33.528Z" fill="#156B43"/>
</g>
</svg>
