<?xml version="1.0" encoding="UTF-8"?>
<svg width="15px" height="15px" viewBox="0 0 15 15" version="1.1" xmlns="http://www.w3.org/2000/svg" xmlns:xlink="http://www.w3.org/1999/xlink">
    <!-- Generator: Sketch 52.2 (67145) - http://www.bohemiancoding.com/sketch -->
    <title>menu/icon/setting</title>
    <desc>Created with Sketch.</desc>
    <g id="menu/icon/setting" stroke="none" stroke-width="1" fill="none" fill-rule="evenodd">
        <g id="setting" fill="#000000" fill-rule="nonzero">
            <path d="M7.5,4.84132653 C6.03061224,4.84132653 4.83520408,6.03520408 4.83520408,7.5 C4.83520408,8.96632653 6.03061224,10.1586735 7.5,10.1586735 C8.96938776,10.1586735 10.1647959,8.96632653 10.1647959,7.5 C10.1647959,6.03367347 8.96938776,4.84132653 7.5,4.84132653 Z M7.5,9.10102041 C6.61683673,9.10102041 5.89744898,8.38163265 5.89744898,7.5 C5.89744898,6.61683673 6.61530612,5.89897959 7.5,5.89897959 C8.38316327,5.89897959 9.10102041,6.61836735 9.10102041,7.5 C9.10102041,8.38316327 8.38316327,9.10102041 7.5,9.10102041 Z" id="Shape"></path>
            <path d="M8.55459184,15 L6.49591837,15 C5.7244898,15 5.14285714,14.4658163 5.14285714,13.7571429 L5.14285714,13.3117347 C5.13826531,13.3102041 5.13367347,13.3071429 5.12908163,13.3056122 L4.82755102,13.6132653 C4.57806122,13.8627551 4.24438776,14.0005102 3.89081633,14.0005102 C3.53571429,14.0005102 3.2005102,13.8612245 2.9494898,13.6102041 L1.49387755,12.15 C0.975,11.6311224 0.973469388,10.7877551 1.49081633,10.2658163 L1.78163265,9.96428571 C1.76632653,9.92755102 1.75255102,9.89234694 1.73877551,9.85561224 L1.35306122,9.85561224 C0.581632653,9.85714286 0,9.32295918 0,8.61428571 L0,6.55561224 C0,5.80255102 0.632142857,5.14285714 1.35306122,5.14285714 L1.71887755,5.14285714 C1.72346939,5.13061224 1.72959184,5.11989796 1.73418367,5.10765306 L1.49387755,4.88571429 C0.976530612,4.36836735 0.975,3.525 1.49234694,3.00765306 L2.94489796,1.55357143 C3.19591837,1.30255102 3.52959184,1.16479592 3.88316327,1.16479592 C4.23673469,1.16479592 4.57040816,1.30255102 4.81989796,1.55357143 L4.82295918,1.55663265 L5.06938776,1.80612245 C5.09387755,1.79540816 5.11836735,1.78622449 5.14285714,1.7755102 L5.14285714,1.4127551 C5.14285714,0.659693878 5.775,0 6.49591837,0 L8.55306122,0 C8.91581633,0 9.26632653,0.171428571 9.51428571,0.469897959 C9.73163265,0.731632653 9.85561224,1.07602041 9.85561224,1.4127551 L9.85561224,1.80765306 C9.88010204,1.81836735 9.90459184,1.82755102 9.92908163,1.83826531 L10.2244898,1.54897959 C10.4755102,1.2994898 10.8091837,1.16173469 11.1642857,1.16173469 C11.5178571,1.16173469 11.85,1.2994898 12.1010204,1.54897959 L13.555102,2.99693878 C13.8061224,3.24795918 13.9454082,3.58010204 13.9454082,3.93061224 C13.9454082,4.28265306 13.8076531,4.61326531 13.5566327,4.86428571 L13.5489796,4.87193878 L13.2673469,5.14285714 L13.697449,5.14285714 C14.0617347,5.14285714 14.4107143,5.31428571 14.6586735,5.6127551 C14.8760204,5.8744898 15,6.21887755 15,6.55561224 L15,8.6127551 C15,9.33367347 14.4520408,9.85561224 13.697449,9.85561224 L13.2229592,9.85561224 C13.2168367,9.87244898 13.2107143,9.8877551 13.2030612,9.90459184 L13.5627551,10.2887755 C14.072449,10.8061224 14.0693878,11.6433673 13.555102,12.1591837 L12.0979592,13.6147959 C11.8469388,13.8658163 11.5132653,14.005102 11.1581633,14.005102 C10.8030612,14.005102 10.4693878,13.8673469 10.2183673,13.6178571 L9.87091837,13.2734694 C9.86632653,13.275 9.86173469,13.2780612 9.85714286,13.2795918 L9.85714286,13.7571429 C9.85714286,14.4765306 9.30918367,15 8.55459184,15 Z M4.8872449,11.9617347 L5.24693878,12.1362245 C5.47806122,12.2479592 5.65408163,12.3260204 5.8622449,12.3903061 L6.25561224,12.5112245 L6.25561224,13.7571429 C6.25561224,13.8857143 6.49438776,13.8872449 6.49591837,13.8872449 L8.55306122,13.8872449 C8.74285714,13.8872449 8.74285714,13.8030612 8.74285714,13.7571429 L8.74285714,12.4806122 L9.13316327,12.3581633 C9.33061224,12.2969388 9.50510204,12.2234694 9.73928571,12.1071429 L10.0959184,11.9295918 L11.0035714,12.8280612 C11.0586735,12.8831633 11.1229592,12.8908163 11.1566327,12.8908163 C11.1903061,12.8908163 11.2561224,12.8831633 11.3096939,12.8280612 L12.7668367,11.3739796 C12.8510204,11.2897959 12.8510204,11.1535714 12.7668367,11.0693878 L12.7545918,11.0556122 L11.8744898,10.1142857 L12.0459184,9.76836735 C12.1377551,9.58316327 12.2219388,9.36887755 12.2954082,9.13469388 L12.4163265,8.74285714 L13.6959184,8.74285714 C13.8857143,8.74285714 13.8857143,8.65867347 13.8857143,8.6127551 L13.8857143,6.55561224 C13.8857143,6.40714286 13.7755102,6.25561224 13.6959184,6.25561224 L12.4438776,6.25561224 L12.3229592,5.8622449 C12.2678571,5.68010204 12.2005102,5.54387755 12.1147959,5.36938776 C12.1010204,5.34030612 12.0857143,5.31122449 12.0719388,5.28061224 L11.8959184,4.91785714 L12.769898,4.07602041 C12.8204082,4.02397959 12.8295918,3.96887755 12.8295918,3.93214286 C12.8295918,3.89387755 12.8188776,3.8372449 12.7668367,3.78520408 L11.3127551,2.3372449 C11.2576531,2.28214286 11.194898,2.2744898 11.1627551,2.2744898 C11.1290816,2.2744898 11.0632653,2.28214286 11.0081633,2.33877551 L11.0035714,2.34336735 L10.1479592,3.18367347 L9.79132653,3 C9.59234694,2.89744898 9.36734694,2.80408163 9.12244898,2.72142857 L8.74438776,2.59285714 L8.74438776,1.4127551 C8.74438776,1.26428571 8.63418367,1.1127551 8.55459184,1.1127551 L6.49591837,1.1127551 C6.40102041,1.1127551 6.25561224,1.27346939 6.25561224,1.4127551 L6.25561224,2.56377551 L5.87602041,2.69081633 C5.64795918,2.76734694 5.42602041,2.85918367 5.19642857,2.97397959 L4.83520408,3.15306122 L4.03316327,2.34030612 C3.97806122,2.28673469 3.91530612,2.27755102 3.88316327,2.27755102 C3.85102041,2.27755102 3.78673469,2.28520408 3.73316327,2.34030612 L2.28061224,3.79591837 C2.1994898,3.87857143 2.19642857,4.01020408 2.27602041,4.09438776 L3.0994898,4.8505102 L2.9127551,5.2255102 C2.80714286,5.43673469 2.70612245,5.64489796 2.62806122,5.87755102 L2.50102041,6.25714286 L1.35306122,6.25714286 C1.25816327,6.25714286 1.1127551,6.41785714 1.1127551,6.55714286 L1.1127551,8.61428571 C1.1127551,8.74285714 1.35153061,8.74438776 1.35306122,8.74438776 L2.52704082,8.74438776 L2.65561224,9.12091837 C2.72295918,9.31683673 2.82397959,9.60459184 2.9372449,9.825 L3.11938776,10.1785714 L2.28214286,11.0479592 C2.19795918,11.1321429 2.19795918,11.2790816 2.28214286,11.3632653 L3.7377551,12.8234694 C3.79285714,12.8785714 3.85867347,12.8877551 3.89234694,12.8877551 C3.93214286,12.8877551 3.99030612,12.8770408 4.04081633,12.8280612 L4.8872449,11.9617347 Z" id="Shape"></path>
        </g>
    </g>
</svg>