<?xml version="1.0" encoding="UTF-8"?>
<svg width="15px" height="15px" viewBox="0 0 15 15" version="1.1" xmlns="http://www.w3.org/2000/svg" xmlns:xlink="http://www.w3.org/1999/xlink">
    <!-- Generator: Sketch 52.2 (67145) - http://www.bohemiancoding.com/sketch -->
    <title>menu/icon/submit-info</title>
    <desc>Created with Sketch.</desc>
    <g id="menu/icon/submit-info" stroke="none" stroke-width="1" fill="none" fill-rule="evenodd">
        <g id="Group-12" transform="translate(0.000000, 1.000000)" fill="#000000">
            <path d="M2.505,10.1578 L6.988,10.1578 L6.988,9.4548 L2.505,9.4548 L2.505,10.1578 Z M12.9108,5.4155 C12.8018,5.5995 12.6898,5.7815 12.5858,5.9675 C12.5498,6.0305 12.5168,6.0425 12.4518,6.0045 C12.1818,5.8495 11.9108,5.6995 11.6388,5.5505 C11.5758,5.5165 11.5548,5.4885 11.5988,5.4195 C11.7148,5.2345 11.8258,5.0465 11.9338,4.8575 C11.9658,4.8035 11.9898,4.7925 12.0468,4.8245 C12.3238,4.9835 12.6038,5.1375 12.8828,5.2955 C12.9048,5.3085 12.9408,5.3115 12.9418,5.3545 C12.9318,5.3735 12.9228,5.3945 12.9108,5.4155 M12.1808,6.6495 C11.5478,7.7025 10.9218,8.7585 10.2928,9.8135 C9.9228,10.4355 9.5528,11.0565 9.1818,11.6765 C9.1598,11.7115 9.1478,11.7575 9.0988,11.7725 C9.0668,11.7555 9.0368,11.7395 9.0078,11.7235 C8.7578,11.5835 8.5118,11.4375 8.2568,11.3065 C8.1508,11.2525 8.1488,11.2075 8.2058,11.1145 C8.8938,9.9655 9.5798,8.8145 10.2658,7.6645 C10.5768,7.1435 10.8898,6.6235 11.1948,6.0995 C11.2478,6.0075 11.2848,5.9885 11.3808,6.0455 C11.6258,6.1935 11.8768,6.3325 12.1298,6.4655 C12.2248,6.5155 12.2378,6.5535 12.1808,6.6495 M7.8958,12.7685 C7.8958,12.4495 7.8948,12.1495 7.8958,11.8505 C7.8958,11.7935 7.9068,11.7525 7.9798,11.7945 C8.2358,11.9405 8.4938,12.0825 8.7748,12.2405 C8.4728,12.4215 8.1888,12.5915 7.8958,12.7685 M13.7158,4.8015 C13.9958,4.9585 14.0498,5.1705 13.8848,5.4465 C12.4668,7.8245 11.0488,10.2025 9.6328,12.5815 C9.5568,12.7105 9.4608,12.8095 9.3298,12.8855 C8.7848,13.2055 8.2438,13.5305 7.7048,13.8585 C7.5328,13.9625 7.3628,14.0025 7.1838,13.8945 C7.0148,13.7925 6.9688,13.6295 6.9888,13.4425 C7.0058,12.8155 7.0238,12.1885 7.0398,11.5615 C7.0428,11.4355 7.0878,11.3275 7.1508,11.2215 C8.2388,9.3975 9.3248,7.5745 10.4118,5.7515 C10.7428,5.1965 11.0728,4.6415 11.4038,4.0865 C11.5818,3.7875 11.7968,3.7285 12.0998,3.8975 C12.6398,4.1985 13.1788,4.4985 13.7158,4.8015 Z M5.9479,12.8135 C6.0539,13.1555 6.1669,13.4965 6.2859,13.8355 C6.3219,13.9385 6.2959,13.9585 6.1939,13.9585 C4.5359,13.9555 2.8779,13.9595 1.2189,13.9545 C0.5659,13.9515 0.0019,13.3755 0.0019,12.7245 C-9.99999992e-05,8.8925 -9.99999992e-05,5.0595 0.0019,1.2275 C0.0019,0.5855 0.5499,0.0285 1.1929,0.0045 C1.2569,0.0015 1.3199,0.0015 1.3829,0.0015 C4.4959,0.0015 7.6079,0.0035 10.7199,0.0005 C11.2869,-0.0005 11.6999,0.2345 11.9549,0.7415 C12.0409,0.9145 12.0699,1.1025 12.0729,1.2925 C12.0789,1.5895 12.0749,1.8855 12.0749,2.1825 C12.0749,2.2365 12.0789,2.2885 12.0239,2.3245 C11.6229,2.5965 11.2219,2.8695 10.7969,3.1575 C10.7969,2.7365 10.7979,2.3475 10.7969,1.9585 C10.7959,1.5395 10.5359,1.2705 10.1159,1.2705 C7.3929,1.2675 4.6699,1.2675 1.9459,1.2705 C1.5309,1.2705 1.2789,1.5325 1.2789,1.9495 C1.2779,5.3055 1.2779,8.6615 1.2789,12.0165 C1.2789,12.4255 1.5329,12.6765 1.9449,12.6775 C3.2149,12.6785 4.4829,12.6795 5.7529,12.6745 C5.8639,12.6745 5.9149,12.7065 5.9479,12.8135 Z M2.505,7.0108 L2.505,6.3078 L8.873,6.3078 L8.873,7.0108 L2.505,7.0108 Z M10.3326,13.9551 C10.9096,12.9511 11.4776,11.9631 12.0446,10.9751 C12.0596,11.6061 12.1086,12.2271 12.0536,12.8471 C12.0006,13.4361 11.4776,13.9241 10.8866,13.9541 C10.7126,13.9621 10.5376,13.9551 10.3326,13.9551 Z M2.505,3.8108 L2.505,3.1078 L10.17,3.1078 L10.17,3.8108 L2.505,3.8108 Z" id="Fill-3"></path>
        </g>
    </g>
</svg>