<?xml version="1.0" encoding="utf-8"?>
<!-- Generator: Adobe Illustrator 23.0.1, SVG Export Plug-In . SVG Version: 6.00 Build 0)  -->
<svg version="1.1" id="Layer_1" xmlns="http://www.w3.org/2000/svg" xmlns:xlink="http://www.w3.org/1999/xlink" x="0px" y="0px"
	 viewBox="0 0 14 15" style="enable-background:new 0 0 14 15;" xml:space="preserve">
<style type="text/css">
	.st0{filter:url(#Adobe_OpacityMaskFilter);}
	.st1{fill-rule:evenodd;clip-rule:evenodd;fill:#FFFFFF;}
	.st2{mask:url(#mask-2_1_);fill-rule:evenodd;clip-rule:evenodd;fill:#231F20;}
	.st3{filter:url(#Adobe_OpacityMaskFilter_1_);}
	.st4{mask:url(#mask-4_1_);fill-rule:evenodd;clip-rule:evenodd;fill:#231F20;}
	.st5{fill-rule:evenodd;clip-rule:evenodd;fill:#231F20;}
</style>
<g id="Symbols">
	<g transform="translate(-1.000000, 0.000000)">
		<g id="Group-17" transform="translate(1.000000, -1.000000)">
			<g id="Group-3" transform="translate(0.000000, 0.564900)">
				<g id="Clip-2">
				</g>
				<defs>
					<filter id="Adobe_OpacityMaskFilter" filterUnits="userSpaceOnUse" x="0.2" y="0.7" width="13.2" height="14.3">
						<feColorMatrix  type="matrix" values="1 0 0 0 0  0 1 0 0 0  0 0 1 0 0  0 0 0 1 0"/>
					</filter>
				</defs>
				<mask maskUnits="userSpaceOnUse" x="0.2" y="0.7" width="13.2" height="14.3" id="mask-2_1_">
					<g class="st0">
						<polygon id="path-1_1_" class="st1" points="0.2,0.7 13.4,0.7 13.4,15 0.2,15 						"/>
					</g>
				</mask>
				<path id="Fill-1" class="st2" d="M13.4,9.5c0,0.1-0.1,0.1-0.1,0.1c-0.3-0.2-0.7-0.4-1.1-0.5c-0.1,0-0.1-0.2-0.1-0.3
					c0-2.1,0-4.1,0-6.2c0-0.1,0-0.2,0-0.3C12.1,2,12,2,11.8,2c-3.3,0-6.7,0-10,0C1.6,2,1.6,2,1.6,2.2c0,3.7,0,7.5,0,11.2
					c0,0.2,0.1,0.2,0.2,0.2c1.8,0,3.6,0,5.4,0c0.2,0,0.3,0,0.3,0.2c0.1,0.3,0.2,0.6,0.4,0.9C8,14.9,8,15,7.8,15c-2.1,0-4.2,0-6.3,0
					c-0.7,0-1.3-0.5-1.3-1.5c0-1.2,0-2.4,0-3.7c0-2.4,0-4.9,0-7.3c0-0.3,0-0.6,0.1-0.8c0.1-0.6,0.7-1,1.3-1c0,0,0.1,0,0.1,0
					c3.4,0,6.8,0,10.1,0c0.8,0,1.3,0.3,1.6,1.1c0,0.1,0,0.1,0,0.2c0,2.5,0,4.9,0,7.4C13.4,9.4,13.5,9.4,13.4,9.5"/>
			</g>
			<g id="Group-6" transform="translate(8.000000, 9.564900)">
				<g id="Clip-5">
				</g>
				<defs>
					<filter id="Adobe_OpacityMaskFilter_1_" filterUnits="userSpaceOnUse" x="0.3" y="0.7" width="5.5" height="5.5">
						<feColorMatrix  type="matrix" values="1 0 0 0 0  0 1 0 0 0  0 0 1 0 0  0 0 0 1 0"/>
					</filter>
				</defs>
				<mask maskUnits="userSpaceOnUse" x="0.3" y="0.7" width="5.5" height="5.5" id="mask-4_1_">
					<g class="st3">
						<polygon id="path-3_1_" class="st1" points="0.3,0.7 5.8,0.7 5.8,6.2 0.3,6.2 						"/>
					</g>
				</mask>
				<path id="Fill-4" class="st4" d="M4.4,3.7L3.3,4.8c0,0-0.1,0-0.1,0s-0.1,0-0.1,0L3,4.7c0,0,0-0.1,0-0.1c0,0,0-0.1,0-0.1l0.6-0.6
					h-2l0,0c-0.1,0-0.2-0.1-0.2-0.2V3.5c0-0.1,0.1-0.2,0.2-0.2h2L3,2.7c0,0,0-0.1,0-0.1c0,0,0-0.1,0-0.1l0.1-0.1c0,0,0.1,0,0.1,0
					s0.1,0,0.1,0l1.1,1.1c0,0,0,0.1,0,0.1C4.5,3.6,4.4,3.7,4.4,3.7 M3,0.7C1.5,0.7,0.3,2,0.3,3.5C0.3,5,1.5,6.2,3,6.2S5.8,5,5.8,3.5
					C5.8,2,4.5,0.7,3,0.7"/>
			</g>
			<path id="Fill-7" class="st5" d="M5.5,6.6c-0.9-0.3-1.2-1.1-1-1.8c0.1-0.7,0.7-1.1,1.4-1.1c0.8,0,1.3,0.4,1.5,1.1
				c0.1,0.6-0.1,1.4-1,1.8c0.3,0,0.6,0,0.9,0c0.2,0,0.4,0.1,0.6,0.2C8.2,7,8.5,7.2,8.4,7.7c0,0.2,0,0.5,0,0.7c0,0.1,0,0.2-0.2,0.2
				c-1.5,0-3.1,0-4.6,0c-0.1,0-0.2-0.1-0.2-0.2c0-0.3,0-0.5,0-0.8C3.5,7.2,3.7,7,4,6.8c0.3-0.2,0.7-0.3,1-0.3
				C5.2,6.6,5.4,6.6,5.5,6.6"/>
			<path id="Fill-9" class="st5" d="M10,9.5C9.5,9.8,8.9,10,8.5,10.4c-0.1,0.1-0.1,0.1-0.2,0.1c-1.5,0-3.1,0-4.6,0
				c-0.2,0-0.2,0-0.2-0.2c0-0.2,0-0.4,0-0.6c0-0.2,0.1-0.2,0.2-0.2c1.3,0,2.6,0,3.9,0H10z"/>
			<path id="Fill-11" class="st5" d="M4.2,12.5c1,0,1.9,0,2.9,0c0,0,0.1,0,0.1,0C6.2,12.5,5.2,12.5,4.2,12.5"/>
			<path id="Fill-13" class="st5" d="M7.6,11.5c0,0-0.1,0-0.1,0c-0.6,0-1.3,0-1.9,0c-0.4,0-0.9,0-1.3,0v0
				C5.3,11.5,6.5,11.5,7.6,11.5"/>
			<path id="Fill-15" class="st5" d="M7.6,11.5c-1.1,0-2.2,0-3.4,0c-0.2,0-0.4,0-0.5,0c-0.2,0-0.2,0-0.2,0.2c0,0.2,0,0.4,0,0.6
				c0,0.2,0.1,0.2,0.2,0.2c0.2,0,0.4,0,0.6,0c1,0,2,0,3,0h0c0.1,0,0.1-0.1,0.2-0.2c0-0.2,0.1-0.4,0.2-0.6
				C7.7,11.6,7.7,11.5,7.6,11.5"/>
		</g>
	</g>
</g>
</svg>
