<svg width="15" height="15" viewBox="0 0 15 15" fill="none" xmlns="http://www.w3.org/2000/svg">
<path fill-rule="evenodd" clip-rule="evenodd" d="M13.8845 2.89259C13.2836 2.29953 12.6826 1.70647 12.0807 1.11425C11.9271 0.96262 11.8639 0.961777 11.7102 1.11257C11.4696 1.34955 11.2295 1.58683 10.9896 1.82405L10.9892 1.82441C10.8292 1.98257 10.6692 2.1407 10.5091 2.29869C10.4848 2.32336 10.4629 2.35039 10.4439 2.37385L10.4439 2.37387L10.4439 2.37391L10.4439 2.37394L10.4331 2.38714L12.5887 4.5193L12.6083 4.50207L12.6083 4.50206C12.6251 4.48749 12.6404 4.47415 12.6552 4.45949L13.2706 3.85137L13.8862 3.24304C14.0382 3.09225 14.0382 3.04423 13.8845 2.89259ZM11.9088 5.87433V7.89444C11.9088 8.26007 11.9073 8.62579 11.9058 8.99153V8.99162V8.99171V8.9918V8.99189V8.99199V8.99208V8.99212V8.99216V8.9922V8.99224V8.99228V8.99232C11.9024 9.83975 11.899 10.6873 11.9139 11.5345C11.925 12.1731 11.4179 12.7872 10.653 12.7813C9.70177 12.7739 8.7505 12.7748 7.79903 12.7756C7.22807 12.7761 6.65704 12.7767 6.08589 12.7754C5.96637 12.7754 5.88015 12.8066 5.79564 12.8925C5.19465 13.4923 4.59281 14.0912 3.98244 14.6826C3.3806 15.2656 2.39119 15.0086 2.16155 14.2126C2.12911 14.1005 2.11887 13.9801 2.11631 13.8621C2.11266 13.6099 2.11334 13.3577 2.11403 13.0985V13.0985V13.0985V13.0985V13.0985V13.0985V13.0984C2.11431 12.9932 2.1146 12.8868 2.1146 12.7788C2.03532 12.7788 1.9571 12.779 1.87964 12.7793H1.87951H1.87938H1.87925H1.87912H1.87899H1.87887H1.87883H1.8788H1.87876H1.87873H1.87869H1.87866C1.68703 12.78 1.50002 12.7807 1.313 12.7771C1.17983 12.7737 1.04238 12.7695 0.913479 12.7383C0.373957 12.6103 0.00773095 12.1486 0.00687727 11.6019C0.00633405 10.946 0.00700067 10.2901 0.00766735 9.63409C0.00909605 8.22825 0.010525 6.82215 4.78815e-05 5.41605C-0.00592783 4.69579 0.548106 4.144 1.28397 4.14906C2.84873 4.15879 4.41305 4.1571 5.97756 4.15541C6.57933 4.15476 7.18113 4.15411 7.78299 4.15411H7.93665C7.92641 4.16689 7.91744 4.17848 7.90923 4.18909C7.89147 4.21206 7.8773 4.23038 7.86153 4.24594C7.81364 4.29403 7.76426 4.34075 7.71492 4.38742C7.61477 4.48218 7.5148 4.57676 7.42786 4.68231C7.29213 4.84658 7.13335 4.88533 6.92676 4.88449C6.15775 4.88126 5.38858 4.88154 4.61933 4.88183C3.58249 4.88221 2.54549 4.8826 1.50849 4.87438C1.05007 4.87101 0.797379 5.1827 0.79994 5.57695C0.810868 7.12773 0.808682 8.67904 0.806496 10.23C0.80595 10.6177 0.805404 11.0054 0.805062 11.393C0.805062 11.5547 0.833233 11.7047 0.939943 11.831C1.07141 11.9869 1.24214 12.0585 1.44617 12.0585C1.77284 12.0579 2.09952 12.0581 2.42619 12.0583L2.9162 12.0585H3.08608V12.6836C3.08608 12.7806 3.08587 12.8776 3.08565 12.9746V12.9746V12.9747V12.9747V12.9747V12.9748V12.9748C3.08501 13.2661 3.08437 13.5576 3.08949 13.8495C3.09035 13.9101 3.1262 14.002 3.17059 14.0196C3.21413 14.0373 3.30462 13.9935 3.34816 13.9514C3.95 13.3651 4.54842 12.7754 5.14173 12.1815C5.23478 12.0888 5.32612 12.0551 5.45502 12.0551C6.88042 12.0587 8.30457 12.0586 9.72908 12.0585H9.7291H9.72913H9.72916H9.72919H9.72922H9.72925L10.4413 12.0585C10.7819 12.0585 11.0235 11.8833 11.091 11.5867C11.1064 11.5226 11.1064 11.453 11.1063 11.3854L11.1063 11.3753C11.1072 9.84884 11.1081 8.32239 11.1055 6.79593C11.1055 6.7041 11.1285 6.63755 11.1968 6.57269C11.3465 6.42992 11.4933 6.28466 11.6484 6.13115C11.7322 6.04825 11.8184 5.96295 11.9088 5.87433ZM2.21516 8.81175C2.17675 8.81175 2.13833 8.81175 2.09991 8.80922C1.94369 8.79742 1.86259 8.71992 1.86089 8.58092C1.85832 8.43519 1.94199 8.34252 2.10077 8.34083C2.43974 8.33716 2.77871 8.33705 3.11769 8.33694C3.24482 8.33689 3.37195 8.33685 3.49909 8.33662H3.62799H5.09802C5.2679 8.33578 5.27302 8.33915 5.23973 8.50174C5.22971 8.55035 5.22234 8.59143 5.21612 8.62613L5.2161 8.62627L5.2161 8.62628V8.62628C5.1997 8.71779 5.19125 8.76493 5.16308 8.78885C5.13316 8.81427 5.08099 8.81349 4.97339 8.81189H4.97339C4.94261 8.81143 4.9073 8.8109 4.86667 8.8109C4.23591 8.81271 3.60515 8.81236 2.97408 8.81202H2.97393H2.97378H2.97363H2.97348H2.97333H2.97318L2.21516 8.81175ZM8.42026 8.57275C8.24696 8.41185 8.05659 8.2341 7.87305 8.06225L11.8247 4.1804C11.9835 4.34719 12.1662 4.53926 12.3378 4.72123C11.6822 5.36562 11.0216 6.01517 10.36 6.66565L10.3546 6.67098L10.3529 6.67262L10.3374 6.68793C9.69794 7.31666 9.05767 7.94622 8.42026 8.57275ZM8.09239 4.7325L8.08919 4.73563L6.30861 6.48086C6.49386 6.67125 6.68081 6.86332 6.83448 7.02085L8.78052 5.11874C9.44757 4.46668 10.1143 3.81495 10.781 3.16343C10.6883 3.07149 10.5951 2.97976 10.5035 2.88963C10.4131 2.80057 10.3242 2.71308 10.2389 2.6285C9.5213 3.33207 8.80519 4.0339 8.09239 4.7325ZM2.19582 10.5655H2.1958C2.15804 10.566 2.12008 10.5664 2.08318 10.5611C1.93635 10.54 1.85098 10.4364 1.86037 10.2974C1.87062 10.1626 1.95855 10.0809 2.1105 10.0801C2.46693 10.0773 2.82276 10.0774 3.17849 10.0775L3.39186 10.0776H5.95545H9.7432C9.93015 10.0776 10.0275 10.1391 10.0505 10.2679C10.0813 10.4415 9.96174 10.5645 9.75771 10.5653C9.40944 10.5659 9.0608 10.5657 8.71202 10.5655L8.18866 10.5653H2.2266L2.19582 10.5655ZM6.07231 6.85625C6.00103 7.20795 5.93018 7.55987 5.85932 7.91179C5.78847 8.26371 5.71761 8.61563 5.64633 8.96734C5.59682 9.2108 5.68389 9.29588 5.93317 9.24702C6.13773 9.20624 6.34229 9.16574 6.54686 9.12523L6.54782 9.12504C6.85429 9.06435 7.16075 9.00366 7.46722 8.94207C7.61979 8.91163 7.77236 8.87985 7.9232 8.84842C8.01036 8.83027 8.09693 8.81223 8.1826 8.79464L6.10732 6.73915L6.09768 6.76888L6.09767 6.76889C6.08722 6.80086 6.07824 6.8283 6.07231 6.85625ZM4.4938 7.06998C4.40417 7.06985 4.31452 7.06971 4.22488 7.06971C3.52999 7.06971 2.83424 7.06971 2.1385 7.06803C1.95069 7.06803 1.86191 6.99221 1.8602 6.83805C1.85935 6.68473 1.9635 6.58364 2.14192 6.5828C3.05418 6.58145 3.96699 6.58226 4.8799 6.58307C5.10831 6.58327 5.33673 6.58347 5.56515 6.58364C5.57063 6.58364 5.57612 6.58508 5.58773 6.58812C5.59599 6.59028 5.60737 6.59326 5.62405 6.59712C5.61613 6.63718 5.60914 6.67703 5.60221 6.71655C5.58524 6.8133 5.56863 6.90804 5.53954 6.99895C5.52759 7.03433 5.44222 7.0655 5.38929 7.06634C5.09117 7.07088 4.79255 7.07043 4.4938 7.06998Z" fill="black"/>
</svg>
