<svg width="20" height="20" viewBox="0 0 20 20" fill="none" xmlns="http://www.w3.org/2000/svg">
<path opacity="0.3" d="M9.99935 5.41699C7.92435 5.41699 6.66602 7.10033 6.66602 9.16699V14.167H13.3327V9.16699C13.3327 7.10033 12.0743 5.41699 9.99935 5.41699Z" fill="#909191"/>
<path d="M9.99967 18.3337C10.9163 18.3337 11.6663 17.5837 11.6663 16.667H8.33301C8.33301 17.5837 9.08301 18.3337 9.99967 18.3337Z" fill="#909191"/>
<path fill-rule="evenodd" clip-rule="evenodd" d="M14.9997 9.16683V13.3335L16.6663 15.0002V15.8335H3.33301V15.0002L4.99967 13.3335V9.16683C4.99967 6.60016 6.36634 4.46683 8.74967 3.90016V3.3335C8.74967 2.64183 9.30801 2.0835 9.99967 2.0835C10.6913 2.0835 11.2497 2.64183 11.2497 3.3335V3.90016C13.6413 4.46683 14.9997 6.6085 14.9997 9.16683ZM6.66634 14.1668H13.333V9.16683C13.333 7.10016 12.0747 5.41683 9.99967 5.41683C7.92467 5.41683 6.66634 7.10016 6.66634 9.16683V14.1668Z" fill="#909191"/>
</svg>
