<svg width="15" height="15" viewBox="0 0 15 15" fill="none" xmlns="http://www.w3.org/2000/svg">
<path fill-rule="evenodd" clip-rule="evenodd" d="M4.83594 7.50001C4.83594 6.03522 6.03135 4.84134 7.50073 4.84134C8.97012 4.84134 10.1655 6.03369 10.1655 7.50001C10.1655 8.96634 8.97012 10.1587 7.50073 10.1587C6.03135 10.1587 4.83594 8.96634 4.83594 7.50001ZM5.89818 7.50001C5.89818 8.38165 6.61757 9.10103 7.50073 9.10103C8.3839 9.10103 9.10175 8.38318 9.10175 7.50001C9.10175 6.61838 8.3839 5.89899 7.50073 5.89899C6.61604 5.89899 5.89818 6.61685 5.89818 7.50001Z" fill="black"/>
<path fill-rule="evenodd" clip-rule="evenodd" d="M6.49592 15H8.55459C9.30918 15 9.85714 14.4765 9.85714 13.7571V13.2796C9.85944 13.2788 9.86173 13.2777 9.86403 13.2765C9.86633 13.2754 9.86862 13.2742 9.87092 13.2735L10.2184 13.6179C10.4694 13.8673 10.8031 14.0051 11.1582 14.0051C11.5133 14.0051 11.8469 13.8658 12.098 13.6148L13.5551 12.1592C14.0694 11.6434 14.0724 10.8061 13.5628 10.2888L13.2031 9.90459C13.2107 9.88775 13.2168 9.87245 13.223 9.85561H13.6974C14.452 9.85561 15 9.33367 15 8.61275V6.55561C15 6.21888 14.876 5.87449 14.6587 5.61276C14.4107 5.31429 14.0617 5.14286 13.6974 5.14286H13.2673L13.549 4.87194L13.5566 4.86429C13.8077 4.61327 13.9454 4.28265 13.9454 3.93061C13.9454 3.5801 13.8061 3.24796 13.5551 2.99694L12.101 1.54898C11.85 1.29949 11.5179 1.16173 11.1643 1.16173C10.8092 1.16173 10.4755 1.29949 10.2245 1.54898L9.92908 1.83827C9.91684 1.83291 9.90459 1.82793 9.89235 1.82296C9.8801 1.81798 9.86786 1.81301 9.85561 1.80765V1.41276C9.85561 1.07602 9.73163 0.731633 9.51429 0.469898C9.26633 0.171429 8.91582 0 8.55306 0H6.49592C5.775 0 5.14286 0.659694 5.14286 1.41276V1.77551C5.13061 1.78087 5.11837 1.78584 5.10612 1.79082C5.09388 1.79579 5.08163 1.80077 5.06939 1.80612L4.82296 1.55663L4.8199 1.55357C4.57041 1.30255 4.23673 1.1648 3.88316 1.1648C3.52959 1.1648 3.19592 1.30255 2.9449 1.55357L1.49235 3.00765C0.975 3.525 0.976531 4.36837 1.49388 4.88571L1.73418 5.10765C1.73189 5.11378 1.72921 5.11952 1.72653 5.12526C1.72385 5.13099 1.72117 5.13673 1.71888 5.14286H1.35306C0.632143 5.14286 0 5.80255 0 6.55561V8.61429C0 9.32296 0.581633 9.85714 1.35306 9.85561H1.73878C1.75255 9.89235 1.76633 9.92755 1.78163 9.96429L1.49082 10.2658C0.973469 10.7878 0.975 11.6311 1.49388 12.15L2.94949 13.6102C3.20051 13.8612 3.53571 14.0005 3.89082 14.0005C4.24439 14.0005 4.57806 13.8628 4.82755 13.6133L5.12908 13.3056C5.13138 13.3064 5.13367 13.3075 5.13597 13.3087C5.13827 13.3098 5.14056 13.311 5.14286 13.3117V13.7571C5.14286 14.4658 5.72449 15 6.49592 15ZM5.24694 12.1362L4.88725 11.9617L4.04082 12.8281C3.99031 12.877 3.93214 12.8878 3.89235 12.8878C3.85867 12.8878 3.79286 12.8786 3.73776 12.8235L2.28214 11.3633C2.19796 11.2791 2.19796 11.1321 2.28214 11.048L3.11939 10.1786L2.93724 9.825C2.82398 9.60459 2.72296 9.31684 2.65561 9.12092L2.52704 8.74439H1.35306C1.35153 8.74439 1.11276 8.74286 1.11276 8.61429V6.55714C1.11276 6.41786 1.25816 6.25714 1.35306 6.25714H2.50102L2.62806 5.87755C2.70612 5.6449 2.80714 5.43673 2.91276 5.22551L3.09949 4.85051L2.27602 4.09439C2.19643 4.0102 2.19949 3.87857 2.28061 3.79592L3.73316 2.34031C3.78673 2.2852 3.85102 2.27755 3.88316 2.27755C3.91531 2.27755 3.97806 2.28673 4.03316 2.34031L4.8352 3.15306L5.19643 2.97398C5.42602 2.85918 5.64796 2.76735 5.87602 2.69082L6.25561 2.56378V1.41276C6.25561 1.27347 6.40102 1.11276 6.49592 1.11276H8.55459C8.63418 1.11276 8.74439 1.26429 8.74439 1.41276V2.59286L9.12245 2.72143C9.36735 2.80408 9.59235 2.89745 9.79133 3L10.148 3.18367L11.0036 2.34337L11.0082 2.33878C11.0633 2.28214 11.1291 2.27449 11.1628 2.27449C11.1949 2.27449 11.2577 2.28214 11.3128 2.33724L12.7668 3.7852C12.8189 3.83724 12.8296 3.89388 12.8296 3.93214C12.8296 3.96888 12.8204 4.02398 12.7699 4.07602L11.8959 4.91786L12.0719 5.28061C12.0802 5.29895 12.089 5.31674 12.0977 5.33431C12.1035 5.34607 12.1093 5.35773 12.1148 5.36939L12.1179 5.37578C12.2022 5.54722 12.2685 5.68233 12.323 5.86224L12.4439 6.25561H13.6959C13.7755 6.25561 13.8857 6.40714 13.8857 6.55561V8.61275C13.8857 8.65867 13.8857 8.74286 13.6959 8.74286H12.4163L12.2954 9.13469C12.2219 9.36888 12.1378 9.58316 12.0459 9.76837L11.8745 10.1143L12.7546 11.0556L12.7668 11.0694C12.851 11.1536 12.851 11.2898 12.7668 11.374L11.3097 12.8281C11.2561 12.8832 11.1903 12.8908 11.1566 12.8908C11.123 12.8908 11.0587 12.8832 11.0036 12.8281L10.0959 11.9296L9.73929 12.1071C9.5051 12.2235 9.33061 12.2969 9.13316 12.3582L8.74286 12.4806V13.7571C8.74286 13.8031 8.74286 13.8872 8.55306 13.8872H6.49592C6.49439 13.8872 6.25561 13.8857 6.25561 13.7571V12.5112L5.86224 12.3903C5.65408 12.326 5.47806 12.248 5.24694 12.1362Z" fill="black"/>
</svg>
