<svg width="15" height="15" viewBox="0 0 15 15" fill="none" xmlns="http://www.w3.org/2000/svg">
<path fill-rule="evenodd" clip-rule="evenodd" d="M6.45282 13.9994C6.73656 13.9996 6.93631 14.1519 6.98924 14.4031C7.03899 14.6393 6.91408 14.8541 6.65872 14.9728C6.64957 14.977 6.64167 14.9839 6.63376 14.9908C6.63013 14.9939 6.62649 14.9971 6.62273 15H1.37929C1.09346 14.8792 0.993519 14.6624 1.00032 14.3556C1.00916 13.955 1.00747 13.5542 1.00578 13.1534C1.00477 12.9133 1.00375 12.6731 1.005 12.433C1.01624 10.2717 2.66022 8.35182 4.78699 8.061C5.24199 7.9988 5.70635 7.99967 6.1694 8.00055C6.29467 8.00079 6.41984 8.00103 6.5447 8.00001C6.80304 7.99795 7.00216 8.2437 6.99701 8.50493C6.99177 8.77163 6.78066 8.98814 6.5075 8.99299C6.25076 8.99755 5.99391 8.9965 5.73708 8.99546C5.66114 8.99515 5.58521 8.99484 5.50928 8.99468C3.56767 8.99036 1.9987 10.5648 2.00344 12.5124C2.00425 12.8466 2.00404 13.1809 2.00383 13.5214C2.00373 13.6791 2.00363 13.8381 2.00363 13.9991H2.19461C2.56487 13.9991 2.93513 13.9991 3.3054 13.9991C4.35454 13.999 5.40369 13.9989 6.45282 13.9994ZM9.80606 12.8182C10.0288 13.0721 10.251 13.0601 10.4466 12.782C10.6491 12.4941 10.8515 12.2061 11.0538 11.9182C11.3335 11.5202 11.6132 11.1223 11.8931 10.7245C12.0473 10.5055 12.0338 10.2491 11.8583 10.0916C11.6889 9.93946 11.4649 9.97981 11.316 10.1907C11.2372 10.3021 11.159 10.4139 11.0807 10.5258C11.0213 10.6107 10.9618 10.6957 10.9021 10.7805C10.7204 11.0387 10.5386 11.2969 10.3559 11.5562C10.2683 11.6805 10.1806 11.8052 10.0925 11.9302C10.0858 11.9251 10.0812 11.9218 10.0779 11.9195C10.0732 11.9161 10.0713 11.9147 10.0697 11.9129C10.0253 11.8626 9.98098 11.8122 9.93665 11.7619C9.84653 11.6594 9.7564 11.557 9.66566 11.4552C9.49031 11.2586 9.26398 11.2472 9.10864 11.4256C8.95359 11.6036 8.96504 11.8594 9.13958 12.0595C9.27499 12.2148 9.41108 12.3693 9.54717 12.5239C9.63352 12.6219 9.71988 12.7199 9.80606 12.8182Z" fill="black"/>
<path fill-rule="evenodd" clip-rule="evenodd" d="M3.5 4C3.5 5.933 5.067 7.5 7 7.5C8.933 7.5 10.5 5.933 10.5 4C10.5 2.067 8.933 0.5 7 0.5C5.067 0.5 3.5 2.067 3.5 4ZM9.5 4C9.5 5.38071 8.38071 6.5 7 6.5C5.61929 6.5 4.5 5.38071 4.5 4C4.5 2.61929 5.61929 1.5 7 1.5C8.38071 1.5 9.5 2.61929 9.5 4Z" fill="black"/>
</svg>
