<svg width="56" height="23" viewBox="0 0 56 23" fill="none" xmlns="http://www.w3.org/2000/svg">
<rect y="1" width="56" height="19" rx="9.5" fill="#2C8FE8"/>
<path d="M25.1641 14.1011C26.5396 14.1011 27.5107 13.3584 27.7349 12.1235H27.1328C26.9438 13.0024 26.1792 13.543 25.1685 13.543C23.8193 13.543 22.9536 12.4839 22.9536 10.814C22.9536 9.16602 23.8193 8.11572 25.1641 8.11572C26.1484 8.11572 26.957 8.75732 27.1328 9.67139H27.7349C27.5635 8.43213 26.5044 7.55762 25.1641 7.55762C23.4414 7.55762 22.3384 8.82764 22.3384 10.814C22.3384 12.8223 23.437 14.1011 25.1641 14.1011ZM28.5698 14H29.1543V11.3105C29.1543 10.4492 29.686 9.87354 30.5078 9.87354C31.2812 9.87354 31.7251 10.3525 31.7251 11.1436V14H32.3096V11.0469C32.3096 10.0229 31.6768 9.35498 30.6748 9.35498C29.9453 9.35498 29.4004 9.71094 29.1675 10.2734H29.1543V7.65869H28.5698V14ZM33.3247 14H33.9048V9.42969H33.3247V14ZM33.6147 8.50684C33.8301 8.50684 34.0059 8.33545 34.0059 8.12012C34.0059 7.90918 33.8301 7.73779 33.6147 7.73779C33.4038 7.73779 33.228 7.90918 33.228 8.12012C33.228 8.33545 33.4038 8.50684 33.6147 8.50684ZM37.0425 8.28711V9.42969H36.3613V9.91309H37.0425V12.875C37.0425 13.7012 37.3501 14.0264 38.1147 14.0264C38.2378 14.0264 38.4839 14.0132 38.5454 14V13.5034C38.5103 13.5122 38.2905 13.521 38.229 13.521C37.8071 13.521 37.6226 13.3188 37.6226 12.8486V9.91309H38.5234V9.42969H37.6226V8.28711H37.0425ZM39.3892 14H39.9692V9.42969H39.3892V14ZM39.6792 8.50684C39.8945 8.50684 40.0703 8.33545 40.0703 8.12012C40.0703 7.90918 39.8945 7.73779 39.6792 7.73779C39.4683 7.73779 39.2925 7.90918 39.2925 8.12012C39.2925 8.33545 39.4683 8.50684 39.6792 8.50684ZM42.8169 9.86475C43.6431 9.86475 44.1924 10.4932 44.2056 11.394H41.3843C41.4326 10.4932 41.9995 9.86475 42.8169 9.86475ZM44.1704 12.7036C44.043 13.2046 43.564 13.5649 42.874 13.5649C41.9644 13.5649 41.3799 12.9233 41.3799 11.8906V11.8555H44.8032V11.6094C44.8032 10.2471 44.0386 9.35498 42.8257 9.35498C41.5864 9.35498 40.7822 10.3086 40.7822 11.728C40.7822 13.1782 41.5776 14.0747 42.8608 14.0747C43.8672 14.0747 44.6099 13.4946 44.7461 12.7036H44.1704ZM43.0586 7.48291H42.5928L41.4106 8.73096H41.9731L42.8169 7.83887H42.8345L43.6782 8.73096H44.2407L43.0586 7.48291ZM43.6562 7.47852H44.1484L45.2075 6.16016H44.6406L43.6562 7.47852ZM45.8315 8.28711V9.42969H45.1504V9.91309H45.8315V12.875C45.8315 13.7012 46.1392 14.0264 46.9038 14.0264C47.0269 14.0264 47.2729 14.0132 47.3345 14V13.5034C47.2993 13.5122 47.0796 13.521 47.0181 13.521C46.5962 13.521 46.4116 13.3188 46.4116 12.8486V9.91309H47.3125V9.42969H46.4116V8.28711H45.8315Z" fill="white"/>
<path fill-rule="evenodd" clip-rule="evenodd" d="M18.0187 10.7186C17.5942 10.0197 17.0233 9.45809 16.3062 9.03384C15.589 8.60959 14.8318 8.39746 14.0343 8.39746C13.2368 8.39746 12.4796 8.60953 11.7624 9.03384C11.0453 9.45809 10.4744 10.0197 10.0499 10.7186C9.9893 10.8254 9.95898 10.9307 9.95898 11.0345C9.95898 11.1383 9.9893 11.2436 10.0499 11.3504C10.4744 12.0493 11.0453 12.611 11.7624 13.0351C12.4796 13.4594 13.2368 13.6714 14.0343 13.6714C14.8318 13.6714 15.5891 13.4601 16.3062 13.0374C17.0233 12.6147 17.5942 12.0524 18.0187 11.3504C18.0794 11.2436 18.1097 11.1383 18.1097 11.0345C18.1097 10.9307 18.0794 10.8254 18.0187 10.7186ZM13.0482 9.50035C13.3268 9.22173 13.6607 9.0824 14.0498 9.0824C14.1121 9.0824 14.165 9.10423 14.2087 9.14779C14.2522 9.19135 14.2741 9.24431 14.2741 9.30656C14.2741 9.36886 14.2522 9.42177 14.2088 9.46527C14.1652 9.50889 14.1122 9.53067 14.0499 9.53067C13.7822 9.53067 13.5534 9.62564 13.3635 9.81553C13.1735 10.0055 13.0786 10.2343 13.0786 10.502C13.0786 10.5643 13.0568 10.6172 13.0132 10.6608C12.9696 10.7044 12.9167 10.7262 12.8544 10.7262C12.7921 10.7262 12.7392 10.7044 12.6956 10.6608C12.652 10.6172 12.6302 10.5643 12.6302 10.502C12.6302 10.1129 12.7696 9.77896 13.0482 9.50035ZM15.9764 12.5729C15.3684 12.9399 14.7097 13.1235 14.0001 13.1235C13.2905 13.1235 12.6318 12.94 12.0238 12.5729C11.4159 12.2058 10.9102 11.7125 10.5069 11.0931C10.9678 10.3801 11.5455 9.8468 12.2399 9.49335C12.0549 9.80753 11.9624 10.1475 11.9624 10.513C11.9624 11.072 12.1618 11.5501 12.5605 11.9474C12.9593 12.3447 13.4392 12.5434 14.0001 12.5434C14.5611 12.5434 15.0409 12.3447 15.4397 11.9474C15.8385 11.5501 16.0378 11.072 16.0378 10.513C16.0378 10.1475 15.9453 9.80747 15.7603 9.49335C16.4547 9.8468 17.0323 10.3801 17.4932 11.0931C17.09 11.7125 16.5844 12.2058 15.9764 12.5729Z" fill="#EEEEEE"/>
</svg>
