<svg width="7" height="10" viewBox="0 0 7 10" fill="none" xmlns="http://www.w3.org/2000/svg">
<path fill-rule="evenodd" clip-rule="evenodd" d="M3.34349 9.99264C3.3498 9.99519 3.35611 9.99775 3.36246 10H3.63823C3.64553 9.99766 3.65281 9.99512 3.66009 9.99258C3.67581 9.9871 3.69154 9.98162 3.70761 9.9781C3.83245 9.95066 3.9491 9.90587 4.04231 9.80006C4.30125 9.50604 4.56029 9.21212 4.81932 8.9182C5.49796 8.14818 6.17658 7.37816 6.85357 6.60631C6.90977 6.54224 6.95461 6.45673 6.98303 6.37187C7.03219 6.22517 6.97158 6.08773 6.83934 6.04188C6.75886 6.01398 6.67117 6.00145 6.58669 6.00136C4.5166 5.99938 2.4465 5.99955 0.376384 6.00195C0.301359 6.00201 0.222823 6.01703 0.152081 6.04509C0.0251946 6.09543 -0.0317225 6.22949 0.0177307 6.37203C0.0481749 6.45974 0.0950718 6.54767 0.153423 6.61422C0.664154 7.19659 1.17603 7.77766 1.68791 8.35873C2.10045 8.82703 2.51299 9.29533 2.92493 9.76431C3.03172 9.88587 3.15588 9.95356 3.30217 9.97914C3.31621 9.98161 3.32985 9.98712 3.34349 9.99264ZM2.92142 3.99854C3.11442 3.99852 3.30741 3.9985 3.50041 3.9985V3.99911L5.96267 3.99908C6.02926 3.99908 6.09584 3.99931 6.16243 3.99954C6.34086 4.00016 6.5193 4.00078 6.69766 3.99684C6.81114 3.99434 6.91935 3.95775 6.97553 3.8299C7.03064 3.70445 6.98369 3.59172 6.92338 3.48628C6.90347 3.4515 6.87787 3.42029 6.85199 3.39072C6.55813 3.05495 6.26418 2.71927 5.97024 2.38359C5.33277 1.6556 4.6953 0.927613 4.05865 0.19867C3.97053 0.0977697 3.86888 0.022913 3.74839 0.0128517C3.57922 -0.00126171 3.40602 -0.0090332 3.23924 0.0181446C3.14092 0.0341711 3.03287 0.101255 2.96124 0.18235C2.01904 1.24864 1.08192 2.32076 0.146324 3.39463C0.0901866 3.45906 0.045722 3.54533 0.0172124 3.63075C-0.0323071 3.77912 0.0279288 3.91308 0.160569 3.96302C0.223066 3.98657 0.292125 3.99694 0.358243 3.99707C1.21263 3.99871 2.06702 3.99862 2.92142 3.99854Z" fill="white"/>
</svg>
