<svg width="21" height="18" viewBox="0 0 21 18" fill="none" xmlns="http://www.w3.org/2000/svg">
<path d="M18.9331 2.22729L18.9293 1.37729L18.9293 1.37729L18.9331 2.22729ZM19.4331 2.22509L19.4368 3.07508L20.2868 3.07134L20.2831 2.22135L19.4331 2.22509ZM1.6206 2.3034L1.61687 1.45341L1.61687 1.45341L1.6206 2.3034ZM1.12061 2.3056L0.270616 2.30934L0.274353 3.15933L1.12434 3.15559L1.12061 2.3056ZM1.11621 1.30561L1.11247 0.45562L0.262482 0.459357L0.266219 1.30935L1.11621 1.30561ZM1.61621 1.30341L1.61247 0.453422L1.61621 1.30341ZM18.9287 1.2273L18.9249 0.377304L18.9287 1.2273ZM19.4287 1.2251L20.2787 1.22136L20.2749 0.371369L19.4249 0.375106L19.4287 1.2251ZM1.1184 8.30341V7.45341H0.268404V8.30341H1.1184ZM13.0015 8.30341H13.8515V7.45341H13.0015V8.30341ZM13.0015 9.30341V10.1534H13.8515V9.30341H13.0015ZM1.1184 9.30341H0.268404V10.1534H1.1184V9.30341ZM1.1184 15.3034V14.4534H0.268404V15.3034H1.1184ZM1.1184 16.3034H0.268404V17.1534H1.1184V16.3034ZM19.4309 16.3034V17.1534H20.2809V16.3034H19.4309ZM19.4309 15.3034H20.2809V14.4534H19.4309V15.3034ZM18.9368 3.07728L19.4368 3.07508L19.4293 1.3751L18.9293 1.37729L18.9368 3.07728ZM1.62434 3.1534L18.9368 3.07728L18.9293 1.37729L1.61687 1.45341L1.62434 3.1534ZM1.12434 3.15559L1.62434 3.1534L1.61687 1.45341L1.11687 1.45561L1.12434 3.15559ZM0.266219 1.30935L0.270616 2.30934L1.9706 2.30187L1.9662 1.30187L0.266219 1.30935ZM1.61247 0.453422L1.11247 0.45562L1.11995 2.1556L1.61994 2.15341L1.61247 0.453422ZM18.9249 0.377304L1.61247 0.453422L1.61994 2.15341L18.9324 2.07729L18.9249 0.377304ZM19.4249 0.375106L18.9249 0.377304L18.9324 2.07729L19.4324 2.07509L19.4249 0.375106ZM20.2831 2.22135L20.2787 1.22136L18.5787 1.22883L18.5831 2.22883L20.2831 2.22135ZM1.6184 7.45341H1.1184V9.15341H1.6184V7.45341ZM12.5015 7.45341H1.6184V9.15341H12.5015V7.45341ZM13.0015 7.45341H12.5015V9.15341H13.0015V7.45341ZM13.8515 9.30341V8.30341H12.1515V9.30341H13.8515ZM12.5015 10.1534H13.0015V8.45341H12.5015V10.1534ZM1.6184 10.1534H12.5015V8.45341H1.6184V10.1534ZM1.1184 10.1534H1.6184V8.45341H1.1184V10.1534ZM0.268404 8.30341V9.30341H1.9684V8.30341H0.268404ZM1.1184 16.1534H1.6184V14.4534H1.1184V16.1534ZM1.9684 16.3034V15.3034H0.268404V16.3034H1.9684ZM1.6184 15.4534H1.1184V17.1534H1.6184V15.4534ZM18.9309 15.4534H1.6184V17.1534H18.9309V15.4534ZM19.4309 15.4534H18.9309V17.1534H19.4309V15.4534ZM18.5809 15.3034V16.3034H20.2809V15.3034H18.5809ZM18.9309 16.1534H19.4309V14.4534H18.9309V16.1534ZM1.6184 16.1534H18.9309V14.4534H1.6184V16.1534Z" fill="#979797"/>
</svg>
