<svg width="15" height="15" viewBox="0 0 15 15" fill="none" xmlns="http://www.w3.org/2000/svg">
<path fill-rule="evenodd" clip-rule="evenodd" d="M5.7525 13.6745C5.8635 13.6745 5.9145 13.7065 5.9475 13.8135C6.0535 14.1555 6.1665 14.4965 6.2855 14.8355C6.3215 14.9385 6.2955 14.9585 6.1935 14.9585C5.46811 14.9572 4.74272 14.9572 4.01724 14.9572C3.08453 14.9573 2.15167 14.9573 1.2185 14.9545C0.5655 14.9515 0.0015 14.3755 0.0015 13.7245C-0.0005 9.89249 -0.0005 6.05949 0.0015 2.22749C0.0015 1.58549 0.5495 1.02849 1.1925 1.00449C1.2565 1.00149 1.3195 1.00149 1.3825 1.00149C2.27199 1.00149 3.16139 1.00165 4.05074 1.00182C6.2739 1.00223 8.4967 1.00263 10.7195 1.00049C11.2865 0.999491 11.6995 1.23449 11.9545 1.74149C12.0405 1.91449 12.0695 2.10249 12.0725 2.29249C12.0768 2.5046 12.076 2.7162 12.0752 2.92801C12.0748 3.01279 12.0745 3.0976 12.0745 3.18249C12.0745 3.18593 12.0745 3.18937 12.0745 3.19279C12.0748 3.24305 12.075 3.29079 12.0235 3.32449C11.8496 3.44246 11.6757 3.56063 11.4998 3.68012C11.2701 3.83613 11.0372 3.9944 10.7965 4.15749C10.7965 4.0147 10.7966 3.8756 10.7967 3.73892C10.7969 3.47262 10.7972 3.21556 10.7965 2.95849C10.7955 2.53949 10.5355 2.27049 10.1155 2.27049C7.3925 2.26749 4.6695 2.26749 1.9455 2.27049C1.5305 2.27049 1.2785 2.53249 1.2785 2.94949C1.2775 6.30549 1.2775 9.66149 1.2785 13.0165C1.2785 13.4255 1.5325 13.6765 1.9445 13.6775H1.9455C3.21517 13.6785 4.48283 13.6795 5.7525 13.6745ZM6.9876 11.1578H2.5046V10.4548H6.9876V11.1578ZM12.8159 6.57391C12.8474 6.52117 12.879 6.46842 12.9104 6.41549C12.9176 6.40282 12.9238 6.39014 12.9297 6.37791C12.9336 6.36987 12.9374 6.36202 12.9414 6.35449C12.9406 6.32118 12.9188 6.31187 12.8988 6.30333C12.893 6.30084 12.8874 6.29842 12.8824 6.29549C12.7692 6.23139 12.6559 6.16795 12.5426 6.10456C12.3767 6.01171 12.211 5.91898 12.0464 5.82449C11.9894 5.79249 11.9654 5.80349 11.9334 5.85749C11.8254 6.04649 11.7144 6.23449 11.5984 6.41949C11.5544 6.48849 11.5754 6.51649 11.6384 6.55049C11.9104 6.69949 12.1814 6.84949 12.4514 7.00449C12.5164 7.04249 12.5494 7.03049 12.5854 6.96749C12.6595 6.83499 12.7376 6.70452 12.8159 6.57391ZM10.8398 9.89441C11.2855 9.14555 11.7312 8.39676 12.1804 7.64949C12.2374 7.55349 12.2244 7.51549 12.1294 7.46549C11.8764 7.33249 11.6254 7.19349 11.3804 7.04549C11.2844 6.98849 11.2474 7.00749 11.1944 7.09949C10.9504 7.51871 10.7013 7.93537 10.4521 8.35204C10.3899 8.45617 10.3276 8.56031 10.2654 8.66449C10.1574 8.84557 10.0494 9.02668 9.94133 9.2078C9.36331 10.1769 8.78507 11.1464 8.2054 12.1145C8.1484 12.2075 8.1504 12.2525 8.2564 12.3065C8.43709 12.3993 8.61325 12.4997 8.78953 12.6001C8.86203 12.6414 8.93454 12.6827 9.0074 12.7235C9.0364 12.7395 9.0664 12.7555 9.0984 12.7725C9.1362 12.7609 9.15199 12.7309 9.16733 12.7017C9.17187 12.6931 9.17637 12.6845 9.1814 12.6765C9.5524 12.0565 9.9224 11.4355 10.2924 10.8135C10.475 10.5072 10.6574 10.2008 10.8398 9.89441ZM7.89517 13.4509C7.89529 13.555 7.8954 13.6607 7.8954 13.7685C8.15413 13.6122 8.40585 13.4614 8.66913 13.3036L8.7744 13.2405C8.66697 13.1801 8.56289 13.122 8.46101 13.0652C8.29641 12.9733 8.13752 12.8847 7.9794 12.7945C7.9064 12.7525 7.8954 12.7935 7.8954 12.8505C7.89474 13.0484 7.89495 13.2468 7.89517 13.4509ZM12.2566 4.9851C12.744 5.25675 13.2305 5.5279 13.7154 5.80149C13.9954 5.95849 14.0494 6.17049 13.8844 6.44649L13.8828 6.44911C12.4654 8.82624 11.0479 11.2034 9.6324 13.5815C9.5564 13.7105 9.4604 13.8095 9.3294 13.8855C8.7844 14.2055 8.2434 14.5305 7.7044 14.8585C7.5324 14.9625 7.3624 15.0025 7.1834 14.8945C7.0144 14.7925 6.9684 14.6295 6.9884 14.4425C6.99407 14.2334 6.99985 14.0244 7.00563 13.8153C7.01718 13.3974 7.02873 12.9794 7.0394 12.5615C7.0424 12.4355 7.0874 12.3275 7.1504 12.2215C7.78581 11.1562 8.42054 10.0913 9.05519 9.02656C9.50723 8.26816 9.95923 7.50982 10.4114 6.75149C10.5769 6.47399 10.7422 6.19649 10.9074 5.91899C11.0726 5.64149 11.2379 5.36399 11.4034 5.08649C11.5814 4.78749 11.7964 4.72849 12.0994 4.89749C12.1518 4.9267 12.2042 4.95591 12.2566 4.9851Z" fill="black"/>
</svg>
