<?xml version="1.0" encoding="UTF-8"?>
<svg width="14px" height="18px" viewBox="0 0 14 18" version="1.1" xmlns="http://www.w3.org/2000/svg" xmlns:xlink="http://www.w3.org/1999/xlink">
    <!-- Generator: Sketch 52.2 (67145) - http://www.bohemiancoding.com/sketch -->
    <title>Shape</title>
    <desc>Created with Sketch.</desc>
    <g id="Symbols" stroke="none" stroke-width="1" fill="none" fill-rule="evenodd">
        <g id="icon/password" transform="translate(-5.000000, -2.000000)" fill="#A9A9A9" fill-rule="nonzero">
            <g id="outline-https-24px" transform="translate(5.000000, 2.000000)">
                <path d="M12.25,6 C13.2125,6 14,6.77142857 14,7.71428571 L14,16.2857143 C14,17.2285714 13.2125,18 12.25,18 L1.75,18 C0.7875,18 0,17.2285714 0,16.2857143 L0,7.71428571 C0,6.77142857 0.7875,6 1.75,6 L2.625,6 L2.625,4.28571429 C2.625,1.92 4.585,0 7,0 C9.415,0 11.375,1.92 11.375,4.28571429 L11.375,6 L12.25,6 Z M4.375,4.28571429 L4.375,6 L9.625,6 L9.625,4.28571429 C9.625,2.86285714 8.4525,1.71428571 7,1.71428571 C5.5475,1.71428571 4.375,2.86285714 4.375,4.28571429 Z M12.25,16.2857143 L12.25,7.71428571 L1.75,7.71428571 L1.75,16.2857143 L12.25,16.2857143 Z M7,13.7142857 C6.0375,13.7142857 5.25,12.9428571 5.25,12 C5.25,11.0571429 6.0375,10.2857143 7,10.2857143 C7.9625,10.2857143 8.75,11.0571429 8.75,12 C8.75,12.9428571 7.9625,13.7142857 7,13.7142857 Z" id="Shape"></path>
            </g>
        </g>
    </g>
</svg>