<svg width="129" height="17" viewBox="0 0 129 17" fill="none" xmlns="http://www.w3.org/2000/svg">
<path fill-rule="evenodd" clip-rule="evenodd" d="M50.6758 0L49.0073 13.0289L46.7257 0H41.9542L39.4716 13.0289L37.9638 0H33.6523L36.1018 17H42.2534L44.2758 5.46797L46.2254 17H52.3114L54.9654 0H50.6758Z" fill="#727376"/>
<path fill-rule="evenodd" clip-rule="evenodd" d="M21.4296 0L16.8262 17H21.4296L22.16 14.0302H27.2076L27.9271 17H32.5305L28.0335 0H21.4296ZM24.5829 3.52711H24.862L26.4513 10.5694H22.9457L24.5829 3.52711Z" fill="#727376"/>
<path fill-rule="evenodd" clip-rule="evenodd" d="M9.38498 0V6.36044H4.07589V0H0V17H4.07589V10.3591H9.38498V17H13.4609V0H9.38498Z" fill="#727376"/>
<path fill-rule="evenodd" clip-rule="evenodd" d="M127.884 8.09309C127.214 7.42944 126.202 7.01991 124.841 6.85688L121.696 6.4892C120.549 6.35647 119.978 5.98465 119.978 5.3781V4.68808C119.978 4.28226 120.105 3.99413 120.357 3.8274C120.611 3.66045 121.073 3.57697 121.751 3.57697H122.733C123.316 3.57697 123.72 3.67178 123.945 3.86532C124.168 4.05842 124.28 4.40365 124.28 4.90036V5.07864H128.364V3.94487C128.364 2.68229 127.946 1.71918 127.105 1.0516C126.268 0.384461 125.056 0.0507812 123.469 0.0507812H120.917C119.832 0.0507812 119.013 0.118999 118.467 0.255435C117.921 0.392089 117.455 0.630961 117.073 0.96464C116.625 1.34758 116.283 1.84428 116.05 2.44713C115.814 3.05368 115.697 3.74 115.697 4.50979V5.5335C115.697 6.89481 115.992 7.92244 116.585 8.61617C117.179 9.31011 118.121 9.72727 119.406 9.87526L122.861 10.2658C123.585 10.353 124.051 10.4857 124.255 10.6562C124.462 10.8229 124.564 11.1075 124.564 11.4981V12.2186C124.564 12.6772 124.433 12.9996 124.175 13.1778C123.916 13.3598 123.465 13.4507 122.817 13.4507H121.751C120.975 13.4507 120.436 13.3332 120.131 13.0944C119.825 12.8592 119.672 12.4423 119.672 11.8431V11.6762H115.588V12.8176C115.588 14.2698 116.01 15.3316 116.851 15.9987C117.692 16.6663 119.042 16.9998 120.895 16.9998H124.364C125.744 16.9998 126.843 16.5866 127.662 15.7636C128.481 14.941 128.889 13.8452 128.889 12.4763V10.8874C128.889 9.68935 128.554 8.75653 127.884 8.09309Z" fill="#727376"/>
<path fill-rule="evenodd" clip-rule="evenodd" d="M63.36 10.5386L64.9835 3.68697H65.26L66.8362 10.5386H63.36ZM61.8567 0.255371L57.292 16.7951H61.8567L62.5811 13.9057H67.5861L68.2995 16.7951H72.8642L68.4052 0.255371H61.8567Z" fill="#727376"/>
<path fill-rule="evenodd" clip-rule="evenodd" d="M109.211 9.89786C109.211 11.3121 109.058 12.2031 108.752 12.5634C108.446 12.9273 107.806 13.1093 106.83 13.1093H103.663V3.94088H106.83C107.798 3.94088 108.439 4.12679 108.748 4.4984C109.058 4.86608 109.211 5.76097 109.211 7.17546V9.89786ZM107.482 0.255371H99.4043V16.7951H107.482C109.728 16.7951 111.3 16.3058 112.203 15.3276C113.106 14.3529 113.557 12.6431 113.557 10.1973V6.8529C113.557 4.40751 113.106 2.69727 112.203 1.72282C111.3 0.744448 109.728 0.255371 107.482 0.255371Z" fill="#727376"/>
<path fill-rule="evenodd" clip-rule="evenodd" d="M92.3279 9.89786C92.3279 11.3121 92.175 12.2031 91.8692 12.5634C91.5633 12.9273 90.9227 13.1093 89.9472 13.1093H86.7804V3.94088H89.9472C90.9156 3.94088 91.5562 4.12679 91.8656 4.4984C92.175 4.86608 92.3279 5.76097 92.3279 7.17546V9.89786ZM90.5988 0.255371H82.5215V16.7951H90.5988C92.8447 16.7951 94.4172 16.3058 95.3201 15.3276C96.2228 14.3529 96.6742 12.6431 96.6742 10.1973V6.8529C96.6742 4.40751 96.2228 2.69727 95.3201 1.72282C94.4172 0.744448 92.8447 0.255371 90.5988 0.255371Z" fill="#727376"/>
</svg>
