<?xml version="1.0" encoding="utf-8"?>
<!-- Generator: Adobe Illustrator 23.0.1, SVG Export Plug-In . SVG Version: 6.00 Build 0)  -->
<svg version="1.1"
	 id="svg4776" xmlns:cc="http://creativecommons.org/ns#" xmlns:dc="http://purl.org/dc/elements/1.1/" xmlns:inkscape="http://www.inkscape.org/namespaces/inkscape" xmlns:rdf="http://www.w3.org/1999/02/22-rdf-syntax-ns#" xmlns:sodipodi="http://sodipodi.sourceforge.net/DTD/sodipodi-0.dtd" xmlns:svg="http://www.w3.org/2000/svg"
	 xmlns="http://www.w3.org/2000/svg" xmlns:xlink="http://www.w3.org/1999/xlink" x="0px" y="0px" viewBox="0 0 595.3 841.9"
	 style="enable-background:new 0 0 595.3 841.9;" xml:space="preserve">
<style type="text/css">
	.st0{fill:#156B43;}
</style>
<g id="layer1" transform="translate(-231.54 -388.91)" inkscape:groupmode="layer" inkscape:label="Layer 1">
	<path id="path3592-4-4-3-8" inkscape:connector-curvature="0" class="st0" d="M529.3,529.2c-128.8,0-238.6,83-275.1,197.3h40.8
		c4.2-11.3,9.3-22.2,15.2-32.6h78.4c-3.4,10.7-6.2,21.6-8.6,32.6h39.7c2.8-11.1,6.1-22,10-32.6h75.7v32.6h38.4v-32.6h81.8
		c4.4,10.6,8.1,21.5,11.2,32.6h39.7c-2.7-11.1-5.8-21.9-9.6-32.6h81.4c5.9,10.4,10.9,21.3,15.2,32.6h40.7
		C767.8,612.2,658.1,529.2,529.3,529.2z M587.2,574.4c53.7,12.3,100.6,41.3,134.5,81.2h-71.2C634.6,624.8,613.6,597.1,587.2,574.4z
		 M460.2,577.2c-23.8,22.1-42.5,48.8-56.5,78.4h-66.8C368.4,618.5,411.1,590.8,460.2,577.2z M543.8,589.5
		c25.3,17.3,45.7,40.2,61.9,66h-61.9V589.5z M505.5,589.8v65.8h-57.8C462.5,629.6,481.5,606.8,505.5,589.8z M265.7,763.6
		c-3.8,0-7,0.9-9.6,2.7c-2.6,1.8-3.9,4-3.9,6.6c0,1.9,0.6,4.6,1.8,8.1l20.4,58.6c0.6,1.8,1.3,3.7,2.1,5.8c0.8,2.1,1.9,4,3.3,5.6
		c1.3,1.6,3.1,2.8,5.4,3.8c2.3,0.9,5.1,1.4,8.6,1.4c4.3,0,7.6-0.8,10.2-2.3c2.6-1.5,4.4-3.2,5.4-5.1c1-1.9,2.2-4.7,3.8-8.6
		l18.2-51.4l18.2,51.6c1.5,3.8,2.7,6.7,3.7,8.5c1,1.8,2.7,3.5,5.3,5.1c2.6,1.5,6,2.2,10.3,2.2c4.5,0,8-0.7,10.5-2.3
		c2.5-1.6,4.2-3.3,5.2-5.3c1-2,2.1-5,3.5-8.9l20.4-58.6c1.3-3.7,1.9-6.3,1.9-8.1c0-2.6-1.3-4.8-3.9-6.6c-2.6-1.8-5.8-2.7-9.5-2.7
		c-3.8,0-6.7,0.7-8.6,2.1c-2,1.4-3.4,2.9-4.1,4.5c-0.8,1.6-1.5,3.8-2.3,6.4l-14.4,49.8l-16.1-46.7c-1.5-3.9-2.7-6.7-3.7-8.6
		c-1-1.8-2.8-3.6-5.4-5.2c-2.6-1.6-6.2-2.4-10.9-2.4c-4.6,0-8.2,0.8-10.9,2.3c-2.7,1.6-4.6,3.4-5.7,5.4c-1.1,2-2.3,4.8-3.7,8.5
		l-16,46.7l-14.5-50.2c-1.1-3.8-2.6-6.8-4.4-9.2C274.4,764.8,270.9,763.6,265.7,763.6L265.7,763.6z M462.9,763.6
		c-3.8,0-7,0.9-9.6,2.7c-2.6,1.8-3.9,4-3.9,6.6c0,1.9,0.6,4.6,1.9,8.1l20.4,58.6c0.6,1.8,1.3,3.7,2.1,5.8c0.8,2.1,1.8,4,3.2,5.6
		s3.1,2.8,5.4,3.8c2.3,0.9,5.1,1.4,8.6,1.4c4.3,0,7.7-0.8,10.3-2.3c2.6-1.5,4.3-3.2,5.3-5.1c1-1.9,2.2-4.7,3.8-8.6l18.2-51.4
		l18.2,51.6c1.5,3.8,2.7,6.7,3.7,8.5c1,1.8,2.7,3.5,5.3,5.1c2.6,1.5,6,2.2,10.3,2.2c4.5,0,8-0.7,10.5-2.3c2.5-1.6,4.2-3.3,5.2-5.3
		c1-2,2.1-5,3.5-8.9l20.4-58.6c1.3-3.7,1.9-6.3,1.9-8.1c0-2.6-1.3-4.8-3.9-6.6c-2.6-1.8-5.8-2.7-9.5-2.7c-3.8,0-6.7,0.7-8.6,2.1
		c-2,1.4-3.4,2.9-4.1,4.5c-0.8,1.6-1.5,3.8-2.3,6.4l-14.4,49.8l-16.1-46.7c-1.5-3.9-2.7-6.7-3.7-8.6c-1-1.8-2.7-3.6-5.3-5.2
		c-2.6-1.6-6.2-2.4-10.9-2.4c-4.6,0-8.3,0.8-11,2.3c-2.7,1.6-4.6,3.4-5.7,5.4c-1.1,2-2.3,4.8-3.7,8.5l-16,46.7l-14.5-50.2
		c-1.1-3.8-2.5-6.8-4.3-9.2C471.7,764.8,468.2,763.6,462.9,763.6L462.9,763.6z M660.1,763.6c-3.8,0-7,0.9-9.6,2.7
		c-2.6,1.8-3.9,4-3.9,6.6c0,1.9,0.6,4.6,1.9,8.1l20.4,58.6c0.6,1.8,1.3,3.7,2.1,5.8c0.8,2.1,1.8,4,3.2,5.6s3.1,2.8,5.4,3.8
		c2.3,0.9,5.1,1.4,8.6,1.4c4.3,0,7.7-0.8,10.3-2.3c2.6-1.5,4.3-3.2,5.3-5.1c1-1.9,2.3-4.7,3.9-8.6l18.2-51.4l18.2,51.6
		c1.5,3.8,2.7,6.7,3.7,8.5c1,1.8,2.7,3.5,5.3,5.1c2.6,1.5,6,2.2,10.3,2.2c4.5,0,8-0.7,10.5-2.3c2.5-1.6,4.2-3.3,5.2-5.3
		c1-2,2.1-5,3.5-8.9l20.4-58.6c1.3-3.7,1.9-6.3,1.9-8.1c0-2.6-1.2-4.8-3.9-6.6c-2.6-1.8-5.8-2.7-9.6-2.7c-3.8,0-6.7,0.7-8.6,2.1
		c-2,1.4-3.4,2.9-4.1,4.5c-0.8,1.6-1.5,3.8-2.3,6.4L762,826.5l-16.2-46.7c-1.5-3.9-2.7-6.7-3.7-8.6c-1-1.8-2.7-3.6-5.3-5.2
		c-2.6-1.6-6.2-2.4-10.9-2.4c-4.6,0-8.3,0.8-11,2.3c-2.7,1.6-4.6,3.4-5.7,5.4c-1.1,2-2.3,4.8-3.7,8.5l-16,46.7l-14.4-50.2
		c-1.1-3.8-2.6-6.8-4.4-9.2C669,764.8,665.4,763.6,660.1,763.6L660.1,763.6z M252.7,888.1c34.9,116.9,145.8,202.4,276.5,202.4
		c130.7,0,241.7-85.4,276.5-202.4h-40.5c-3.9,11-8.5,21.7-13.9,31.9h-82.2c3.5-10.5,6.4-21.1,8.8-31.9h-39.1
		c-2.7,10.9-6,21.6-10,31.9h-85v-31.9h-38.4V920h-77.7c-3.5-10.3-6.6-21-9.1-31.9h-39.4c2.2,10.8,4.9,21.5,8,31.9h-80.2
		c-5.4-10.3-10.1-20.9-14-31.9H252.7L252.7,888.1z M332.3,958.4h68.8c14,32.5,32.6,61.5,56.6,83.5
		C407.2,1027.3,363.7,997.7,332.3,958.4L332.3,958.4z M443.8,958.4h61.7v71.7C480.5,1014.3,459.7,989.1,443.8,958.4z M543.8,958.4
		h65.9c-16.7,28-38.5,52.2-65.9,69.9V958.4z M653.9,958.4h72.4c-34.6,43.3-83.9,74.8-141,87.4C614.5,1022.2,637.3,992.1,653.9,958.4
		z"/>
</g>
</svg>
